<svg width="479" height="622" viewBox="0 0 479 622" fill="none" xmlns="http://www.w3.org/2000/svg">
<g clip-path="url(#clip0)">
<g opacity="0.5">
<path opacity="0.5" d="M353.998 196.966H318.939V183.551C318.939 179.825 317.459 176.251 314.824 173.616C312.189 170.981 308.615 169.5 304.888 169.5H144.366C140.985 169.5 137.743 170.843 135.352 173.234C132.961 175.625 131.618 178.867 131.618 182.248V196.974H126.34C122.408 196.973 118.636 198.533 115.853 201.311C113.071 204.089 111.505 207.858 111.5 211.791V278.298C111.503 282.038 112.918 285.638 115.463 288.379C118.008 291.12 121.494 292.798 125.224 293.077V308.12H140.209V293.122H159.079V308.247H174.064V293.122H308.926V308.247H323.911V293.122H336.4V308.107H351.401V293.122H354.101C355.86 293.122 357.603 292.776 359.228 292.103C360.854 291.43 362.331 290.443 363.575 289.199C364.82 287.955 365.807 286.478 366.48 284.853C367.153 283.227 367.5 281.485 367.5 279.726V210.471C367.5 208.698 367.151 206.942 366.473 205.303C365.795 203.665 364.8 202.176 363.546 200.922C362.292 199.668 360.804 198.673 359.166 197.994C357.527 197.316 355.771 196.966 353.998 196.966ZM316.3 255.659V266.896H260.434C261.039 265.813 261.356 264.593 261.355 263.352V255.659H316.3Z" fill="url(#paint0_linear)"/>
</g>
<path d="M143.906 287.501H129.478V305.537H143.906V287.501Z" fill="#FC665C"/>
<path d="M320.797 287.635H306.369V305.671H320.797V287.635Z" fill="#FC665C"/>
<path d="M347.25 287.501H332.821V305.537H347.25V287.501Z" fill="#FC665C"/>
<path d="M176.506 287.635H162.077V305.671H176.506V287.635Z" fill="#FC665C"/>
<path opacity="0.3" d="M143.906 287.501H129.478V305.537H143.906V287.501Z" fill="black"/>
<path opacity="0.3" d="M320.797 287.635H306.369V305.671H320.797V287.635Z" fill="black"/>
<path opacity="0.3" d="M347.25 287.501H332.821V305.537H347.25V287.501Z" fill="black"/>
<path opacity="0.3" d="M176.506 287.635H162.077V305.671H176.506V287.635Z" fill="black"/>
<path d="M313.45 198.521H349.749C353.197 198.521 356.504 199.89 358.942 202.329C361.38 204.767 362.749 208.073 362.749 211.521V278.211C362.749 281.631 361.391 284.912 358.972 287.331C356.553 289.749 353.273 291.108 349.852 291.108H313.45V198.521Z" fill="#FC665C"/>
<path opacity="0.3" d="M313.45 198.521H349.749C353.197 198.521 356.504 199.89 358.942 202.329C361.38 204.767 362.749 208.073 362.749 211.521V278.211C362.749 281.631 361.391 284.912 358.972 287.331C356.553 289.749 353.273 291.108 349.852 291.108H313.45V198.521Z" fill="black"/>
<path d="M147.897 172.068H217.389V255.036H135.622V184.34C135.623 181.085 136.916 177.964 139.218 175.663C141.52 173.361 144.642 172.068 147.897 172.068Z" fill="#FC665C"/>
<path opacity="0.3" d="M148.293 172.068H217.389V255.036H135.622V184.736C135.622 183.073 135.95 181.425 136.587 179.888C137.223 178.351 138.157 176.954 139.333 175.778C140.51 174.601 141.907 173.668 143.444 173.032C144.981 172.395 146.629 172.068 148.293 172.068Z" fill="black"/>
<path d="M166.712 172.068H234.09V255.036H152.323V186.454C152.323 182.639 153.838 178.98 156.536 176.282C159.234 173.584 162.893 172.068 166.709 172.068H166.712Z" fill="#FC665C"/>
<path d="M233.694 172.068H302.458C306.046 172.068 309.488 173.494 312.025 176.031C314.563 178.569 315.989 182.011 315.989 185.599V255.036H233.694V172.068Z" fill="#FC665C"/>
<path d="M336.297 198.521H349.757C353.204 198.523 356.508 199.893 358.945 202.331C361.381 204.769 362.75 208.075 362.75 211.521V278.211C362.75 281.631 361.391 284.912 358.972 287.331C356.553 289.749 353.273 291.108 349.852 291.108H336.297V198.521Z" fill="#FC665C"/>
<path d="M336.294 265.857H170.359V291.108H336.294V265.857Z" fill="#FC665C"/>
<path d="M208.487 201.776L190.356 207.061C182.373 209.388 177.787 217.746 180.114 225.729L186.12 246.336C188.447 254.319 196.805 258.904 204.789 256.578L222.92 251.293C230.903 248.966 235.489 240.608 233.162 232.624L227.156 212.018C224.829 204.034 216.471 199.449 208.487 201.776Z" fill="url(#paint1_linear)"/>
<path d="M207.488 204.237L190.581 209.166C183.136 211.335 178.86 219.129 181.03 226.574L186.631 245.79C188.801 253.234 196.595 257.51 204.04 255.34L220.947 250.412C228.392 248.242 232.668 240.448 230.498 233.004L224.897 213.788C222.727 206.343 214.933 202.067 207.488 204.237Z" fill="#F55F44"/>
<path opacity="0.1" d="M207.488 204.237L190.581 209.166C183.136 211.335 178.86 219.129 181.03 226.574L186.631 245.79C188.801 253.234 196.595 257.51 204.04 255.34L220.947 250.412C228.392 248.242 232.668 240.448 230.498 233.004L224.897 213.788C222.727 206.343 214.933 202.067 207.488 204.237Z" fill="black"/>
<path d="M208.361 203.624L191.453 208.552C184.009 210.722 179.733 218.516 181.903 225.961L187.503 245.177C189.673 252.621 197.467 256.897 204.912 254.727L221.819 249.799C229.264 247.629 233.54 239.835 231.37 232.391L225.769 213.175C223.599 205.73 215.805 201.454 208.361 203.624Z" fill="#F55F44"/>
<path d="M204.745 220.214C206.374 219.068 206.766 216.817 205.62 215.188C204.474 213.558 202.223 213.166 200.594 214.312C198.964 215.458 198.572 217.709 199.718 219.339C200.864 220.968 203.115 221.36 204.745 220.214Z" fill="url(#paint2_linear)"/>
<path d="M222.005 230.124C223.635 228.977 224.027 226.727 222.881 225.097C221.734 223.467 219.484 223.076 217.854 224.222C216.225 225.368 215.833 227.618 216.979 229.248C218.125 230.878 220.376 231.27 222.005 230.124Z" fill="url(#paint3_linear)"/>
<path d="M195.233 240.13C196.862 238.984 197.254 236.734 196.108 235.104C194.962 233.474 192.711 233.082 191.082 234.228C189.452 235.375 189.06 237.625 190.206 239.255C191.352 240.885 193.603 241.277 195.233 240.13Z" fill="url(#paint4_linear)"/>
<path d="M211.508 250.734C213.137 249.588 213.529 247.337 212.383 245.707C211.237 244.078 208.986 243.686 207.357 244.832C205.727 245.978 205.335 248.229 206.481 249.858C207.628 251.488 209.878 251.88 211.508 250.734Z" fill="url(#paint5_linear)"/>
<path d="M204.052 219.23C205.138 218.466 205.4 216.966 204.636 215.88C203.872 214.794 202.372 214.533 201.286 215.297C200.2 216.06 199.939 217.56 200.702 218.646C201.466 219.732 202.966 219.994 204.052 219.23Z" fill="#F99F8F"/>
<path d="M221.313 229.139C222.399 228.375 222.66 226.876 221.896 225.79C221.133 224.703 219.633 224.442 218.547 225.206C217.461 225.97 217.199 227.47 217.963 228.556C218.727 229.642 220.227 229.903 221.313 229.139Z" fill="#F99F8F"/>
<path d="M194.54 239.146C195.626 238.382 195.888 236.882 195.124 235.796C194.36 234.71 192.86 234.449 191.774 235.213C190.688 235.977 190.427 237.476 191.191 238.563C191.954 239.649 193.454 239.91 194.54 239.146Z" fill="#F99F8F"/>
<path d="M210.815 249.749C211.902 248.986 212.163 247.486 211.399 246.4C210.635 245.314 209.135 245.052 208.049 245.816C206.963 246.58 206.702 248.08 207.466 249.166C208.23 250.252 209.729 250.513 210.815 249.749Z" fill="#F99F8F"/>
<path d="M130.536 198.521H183.584V291.108H130.536C126.748 291.108 123.115 289.604 120.436 286.925C117.757 284.246 116.251 280.613 116.25 276.825V212.807C116.25 209.018 117.756 205.384 120.435 202.705C123.114 200.026 126.747 198.521 130.536 198.521Z" fill="#FC665C"/>
<path opacity="0.3" d="M130.637 198.521H170.274C172.023 198.521 173.755 198.865 175.371 199.535C176.987 200.205 178.455 201.186 179.691 202.423C180.927 203.661 181.908 205.129 182.576 206.746C183.244 208.362 183.588 210.094 183.586 211.843V277.796C183.586 281.327 182.184 284.713 179.687 287.209C177.191 289.706 173.805 291.108 170.274 291.108H130.637C126.821 291.108 123.162 289.593 120.464 286.895C117.766 284.197 116.25 280.538 116.25 276.722V212.899C116.253 209.085 117.769 205.428 120.467 202.732C123.165 200.035 126.823 198.521 130.637 198.521Z" fill="black"/>
<path opacity="0.1" d="M157.266 198.521H180.435C181.625 198.521 182.766 198.993 183.608 199.835C184.449 200.676 184.922 201.817 184.922 203.007V286.622C184.922 287.812 184.449 288.953 183.608 289.794C182.766 290.636 181.625 291.108 180.435 291.108H157.266V198.521Z" fill="black"/>
<path d="M155.931 198.521H179.1C180.29 198.521 181.431 198.993 182.272 199.835C183.114 200.676 183.587 201.817 183.587 203.007V286.622C183.587 287.812 183.114 288.953 182.272 289.794C181.431 290.636 180.29 291.108 179.1 291.108H155.931V198.521Z" fill="#FC665C"/>
<path d="M260.542 246.62H177.574V269.467H260.542V246.62Z" fill="#FC665C"/>
<path d="M343.645 246.752H260.677V269.599H343.645V246.752Z" fill="#FC665C"/>
<path opacity="0.15" d="M253.522 246.62H184.595C180.718 246.62 177.574 249.763 177.574 253.64V262.447C177.574 266.324 180.718 269.467 184.595 269.467H253.522C257.399 269.467 260.542 266.324 260.542 262.447V253.64C260.542 249.763 257.399 246.62 253.522 246.62Z" fill="white"/>
<path d="M270.228 204.599C272.884 204.599 275.037 202.446 275.037 199.79C275.037 197.134 272.884 194.982 270.228 194.982C267.572 194.982 265.419 197.134 265.419 199.79C265.419 202.446 267.572 204.599 270.228 204.599Z" fill="#FC665C"/>
<path opacity="0.3" d="M270.228 204.599C272.884 204.599 275.037 202.446 275.037 199.79C275.037 197.134 272.884 194.982 270.228 194.982C267.572 194.982 265.419 197.134 265.419 199.79C265.419 202.446 267.572 204.599 270.228 204.599Z" fill="black"/>
<path d="M195.679 204.599C198.335 204.599 200.488 202.446 200.488 199.79C200.488 197.134 198.335 194.982 195.679 194.982C193.023 194.982 190.871 197.134 190.871 199.79C190.871 202.446 193.023 204.599 195.679 204.599Z" fill="#FC665C"/>
<path opacity="0.3" d="M195.679 204.599C198.335 204.599 200.488 202.446 200.488 199.79C200.488 197.134 198.335 194.982 195.679 194.982C193.023 194.982 190.871 197.134 190.871 199.79C190.871 202.446 193.023 204.599 195.679 204.599Z" fill="black"/>
<path d="M193.272 174.404C193.937 174.404 194.476 173.597 194.476 172.601C194.476 171.606 193.937 170.799 193.272 170.799C192.608 170.799 192.069 171.606 192.069 172.601C192.069 173.597 192.608 174.404 193.272 174.404Z" fill="#FDA57D"/>
<path opacity="0.15" d="M336.624 246.752H267.697C263.82 246.752 260.677 249.895 260.677 253.772V262.579C260.677 266.456 263.82 269.599 267.697 269.599H336.624C340.501 269.599 343.645 266.456 343.645 262.579V253.772C343.645 249.895 340.501 246.752 336.624 246.752Z" fill="white"/>
<g opacity="0.5">
<path opacity="0.5" d="M288.969 200.497C288.417 197.465 287.852 194.398 286.594 191.577C285.215 188.478 283.055 185.79 280.325 183.776C279.92 183.469 279.418 183.319 278.911 183.353C278.119 183.422 277.876 183.908 277.752 184.409C277.736 184.47 277.723 184.528 277.713 184.589C277.401 186.127 277.61 187.647 278.061 189.146C278.623 191.018 279.565 192.841 280.349 194.652C281.761 197.896 282.697 201.327 283.128 204.839C283.186 205.303 283.231 205.781 283.242 206.259C283.249 206.543 283.242 206.828 283.221 207.111C283.185 207.667 283.059 208.214 282.846 208.729C282.809 208.814 282.769 208.901 282.727 208.993C282.685 209.084 282.639 209.165 282.59 209.236C282.11 210.028 281.36 210.592 280.626 211.149C279.893 211.706 279.061 212.3 278.185 212.601H278.214C277.807 212.748 277.375 212.819 276.942 212.809C275.588 212.767 274.145 211.677 272.783 211.933L272.63 211.967C271.236 212.345 270.167 214.535 270.157 215.926C270.157 216.037 270.157 216.144 270.157 216.248C270.157 216.285 270.157 216.322 270.17 216.359C270.183 216.396 270.186 216.499 270.196 216.565C270.207 216.631 270.212 216.647 270.223 216.686C270.233 216.726 270.246 216.805 270.262 216.863C270.278 216.921 270.286 216.945 270.299 216.984C270.312 217.024 270.334 217.093 270.352 217.145C270.371 217.198 270.384 217.225 270.4 217.262C270.415 217.298 270.442 217.362 270.466 217.409L270.524 217.52C270.55 217.565 270.574 217.613 270.603 217.657L270.671 217.763L270.761 217.89L270.838 217.987L270.941 218.103L271.025 218.193L271.139 218.301L271.231 218.383L271.355 218.483L271.453 218.56L271.587 218.652L271.687 218.721L271.835 218.808L271.938 218.866L272.104 218.948L272.202 218.995C272.281 219.032 272.363 219.067 272.445 219.098L272.564 219.143L272.754 219.212L272.891 219.254L273.047 219.302L273.2 219.341L273.348 219.378L273.511 219.412L273.654 219.441L273.825 219.471L273.962 219.492L274.139 219.515L274.271 219.531L274.456 219.547H274.585H274.775H274.897H275.095H275.509H275.725H275.802L276.034 219.529H276.079C276.738 219.471 277.386 219.328 278.008 219.104C279.98 218.357 281.653 216.992 283.202 215.559C286.274 212.722 289.177 209.201 289.423 205.026C289.518 203.519 289.241 201.999 288.969 200.497Z" fill="url(#paint6_linear)"/>
</g>
<path opacity="0.1" d="M275.976 199.495H251.096V206.697H275.976V199.495Z" fill="black"/>
<path d="M275.976 199.495H251.096V206.042H275.976V199.495Z" fill="#FC665C"/>
<path d="M265.501 200.368C267.67 200.368 269.428 198.61 269.428 196.441C269.428 194.272 267.67 192.514 265.501 192.514C263.332 192.514 261.574 194.272 261.574 196.441C261.574 198.61 263.332 200.368 265.501 200.368Z" fill="#FC665C"/>
<path d="M258.096 202.485L258.048 202.437C258.137 202.37 258.209 202.283 258.259 202.183C258.309 202.083 258.335 201.972 258.335 201.861C258.335 201.749 258.309 201.639 258.259 201.539C258.209 201.439 258.137 201.351 258.048 201.284L258.09 201.231C258.186 201.305 258.263 201.4 258.316 201.508C258.369 201.617 258.397 201.736 258.397 201.857C258.397 201.977 258.369 202.096 258.316 202.205C258.263 202.313 258.186 202.408 258.09 202.482L258.096 202.485Z" fill="#1890FF"/>
<path opacity="0.1" d="M258.096 202.485L258.048 202.437C258.137 202.37 258.209 202.283 258.259 202.183C258.309 202.083 258.335 201.972 258.335 201.861C258.335 201.749 258.309 201.639 258.259 201.539C258.209 201.439 258.137 201.351 258.048 201.284L258.09 201.231C258.186 201.305 258.263 201.4 258.316 201.508C258.369 201.617 258.397 201.736 258.397 201.857C258.397 201.977 258.369 202.096 258.316 202.205C258.263 202.313 258.186 202.408 258.09 202.482L258.096 202.485Z" fill="black"/>
<path d="M258.048 202.485C257.953 202.411 257.875 202.316 257.822 202.208C257.769 202.099 257.742 201.98 257.742 201.859C257.742 201.739 257.769 201.619 257.822 201.511C257.875 201.403 257.953 201.308 258.048 201.234L258.09 201.287C258.001 201.354 257.929 201.441 257.879 201.541C257.829 201.641 257.803 201.752 257.803 201.863C257.803 201.975 257.829 202.085 257.879 202.185C257.929 202.285 258.001 202.372 258.09 202.44L258.048 202.485Z" fill="#1890FF"/>
<path d="M278.167 223.614C279.969 222.93 281.497 221.682 282.917 220.373C285.725 217.781 288.375 214.567 288.602 210.748C288.684 209.355 288.433 207.966 288.182 206.591C287.678 203.82 287.164 201.017 286.021 198.442C284.761 195.611 282.787 193.155 280.294 191.316C279.923 191.035 279.462 190.898 278.998 190.93C278.206 191.002 278.006 191.545 277.9 192.065C277.259 195.232 279.019 198.304 280.307 201.26C281.597 204.225 282.452 207.36 282.846 210.569C283.012 211.93 283.073 213.403 282.355 214.575C281.917 215.293 281.231 215.815 280.56 216.322C279.557 217.079 278.449 217.874 277.193 217.837C275.937 217.8 274.532 216.721 273.234 217.069C271.936 217.417 270.983 219.415 270.975 220.695C270.959 224.163 275.754 224.527 278.167 223.614Z" fill="#FFD180"/>
<g opacity="0.1">
<path opacity="0.1" d="M282.35 214.575C281.911 215.293 281.225 215.815 280.555 216.322C279.884 216.876 279.131 217.321 278.322 217.642C279.462 217.565 280.484 216.85 281.41 216.14C282.08 215.633 282.767 215.108 283.205 214.393C283.92 213.224 283.862 211.754 283.696 210.386C283.302 207.178 282.447 204.042 281.157 201.078C279.869 198.12 278.106 195.045 278.75 191.883C278.768 191.696 278.824 191.515 278.914 191.351C279.005 191.186 279.129 191.042 279.278 190.928C279.18 190.92 279.082 190.92 278.985 190.928C278.193 190.999 277.992 191.543 277.887 192.063C277.245 195.23 279.006 198.302 280.294 201.258C281.584 204.222 282.439 207.357 282.833 210.566C283.007 211.93 283.067 213.403 282.35 214.575Z" fill="black"/>
<path opacity="0.1" d="M271.835 220.521C271.835 219.339 272.677 217.541 273.809 217.003C273.616 216.998 273.423 217.02 273.236 217.069C271.962 217.415 270.985 219.415 270.977 220.695C270.962 223.931 275.129 224.459 277.649 223.78C275.145 224.144 271.819 223.403 271.835 220.521Z" fill="black"/>
</g>
<g opacity="0.5">
<path opacity="0.5" d="M253.453 184.446C253.453 184.446 260.642 183.008 264.237 184.446C264.237 184.446 266.393 179.413 268.549 179.413C270.706 179.413 271.423 187.331 271.423 187.331L274.297 198.832C274.297 198.832 287.955 223.274 274.297 236.211C260.64 249.148 239.078 234.765 239.078 225.419C239.078 216.074 243.39 196.668 243.39 196.668C243.39 196.668 247.702 180.854 249.141 179.416C250.579 177.977 253.453 184.446 253.453 184.446Z" fill="url(#paint7_linear)"/>
</g>
<path d="M253.696 185.446C253.696 185.446 260.605 184.063 264.06 185.446C264.06 185.446 266.132 180.609 268.206 180.609C270.281 180.609 270.969 188.209 270.969 188.209L273.733 199.265C273.733 199.265 286.863 222.754 273.733 235.197C260.603 247.641 239.872 233.814 239.872 224.833C239.872 215.852 244.018 197.193 244.018 197.193C244.018 197.193 248.164 181.992 249.547 180.609C250.93 179.226 253.696 185.446 253.696 185.446Z" fill="#FFD180"/>
<g opacity="0.1">
<path opacity="0.1" d="M278.56 212.181C277.5 207.69 275.875 203.351 273.725 199.268L274.16 201.015C276.032 204.564 277.508 208.309 278.56 212.181Z" fill="white"/>
<path opacity="0.1" d="M241.115 222.973C241.115 213.999 244.459 198.94 244.459 198.94C244.459 198.94 248.605 183.739 249.988 182.356C251.371 180.973 254.134 187.193 254.134 187.193C254.134 187.193 261.044 185.81 264.498 187.193C264.498 187.193 266.573 182.356 268.644 182.356C269.436 182.356 270.046 183.501 270.473 184.903C270.051 182.852 269.333 180.609 268.209 180.609C266.137 180.609 264.063 185.446 264.063 185.446C260.608 184.063 253.699 185.446 253.699 185.446C253.699 185.446 250.936 179.228 249.553 180.609C248.17 181.989 244.024 197.193 244.024 197.193C244.024 197.193 240.68 212.237 240.68 221.226C240.677 222.038 241.115 223.231 241.115 222.973Z" fill="white"/>
</g>
<path d="M267.172 198.922C267.936 198.922 268.555 198.303 268.555 197.539C268.555 196.775 267.936 196.156 267.172 196.156C266.408 196.156 265.789 196.775 265.789 197.539C265.789 198.303 266.408 198.922 267.172 198.922Z" fill="#58555D"/>
<path d="M251.279 198.922C252.042 198.922 252.662 198.303 252.662 197.539C252.662 196.775 252.042 196.156 251.279 196.156C250.515 196.156 249.896 196.775 249.896 197.539C249.896 198.303 250.515 198.922 251.279 198.922Z" fill="#58555D"/>
<path d="M259.571 200.305C260.715 200.305 261.643 199.686 261.643 198.922C261.643 198.158 260.715 197.539 259.571 197.539C258.427 197.539 257.499 198.158 257.499 198.922C257.499 199.686 258.427 200.305 259.571 200.305Z" fill="#58555D"/>
<path d="M277.462 195.808L271.243 197.189L271.393 197.864L277.612 196.483L277.462 195.808Z" fill="#FFD180"/>
<path d="M278.163 198.573L271.252 199.95L271.388 200.629L278.298 199.251L278.163 198.573Z" fill="#FFD180"/>
<path d="M239.657 193.761L239.4 194.403L246.31 197.167L246.567 196.525L239.657 193.761Z" fill="#FFD180"/>
<path d="M237.519 197.204L237.414 197.887L246.398 199.27L246.503 198.586L237.519 197.204Z" fill="#FFD180"/>
<path opacity="0.1" d="M257.847 207.763C256.039 207.765 254.233 207.611 252.45 207.304C249.023 206.714 245.725 205.528 242.707 203.802L242.947 202.685C246 204.339 249.296 205.497 252.712 206.116C257.686 206.969 266.243 206.713 274.939 201.915L275.519 202.97C269.206 206.459 262.561 207.763 257.847 207.763Z" fill="black"/>
<path d="M274.939 201.659C266.23 206.457 257.684 206.713 252.712 205.86C249.296 205.241 246 204.083 242.947 202.429L242.308 203.448C245.472 205.187 248.897 206.4 252.45 207.04C254.234 207.348 256.04 207.503 257.85 207.502C262.564 207.502 269.199 206.201 275.533 202.717L274.939 201.659ZM258.072 207.407C258.045 207.407 258.019 207.399 257.997 207.384C257.975 207.369 257.958 207.348 257.948 207.324C257.937 207.299 257.935 207.272 257.94 207.246C257.945 207.22 257.958 207.196 257.977 207.177C257.996 207.158 258.02 207.145 258.046 207.14C258.072 207.135 258.099 207.138 258.123 207.148C258.148 207.158 258.169 207.175 258.184 207.197C258.199 207.22 258.206 207.246 258.206 207.272C258.206 207.308 258.191 207.341 258.166 207.366C258.141 207.39 258.107 207.404 258.072 207.404V207.407Z" fill="#F55F44"/>
<path opacity="0.1" d="M256.734 209.275C256.734 209.63 256.875 209.969 257.125 210.22C257.375 210.47 257.715 210.611 258.069 210.611C258.423 210.611 258.763 210.47 259.014 210.22C259.264 209.969 259.405 209.63 259.405 209.275C259.405 208.921 259.264 208.582 259.014 208.331C258.763 208.081 258.423 207.94 258.069 207.94C257.715 207.94 257.375 208.081 257.125 208.331C256.875 208.582 256.734 208.921 256.734 209.275ZM258.069 208.608C258.025 208.608 257.983 208.595 257.946 208.57C257.91 208.546 257.881 208.511 257.864 208.471C257.848 208.43 257.843 208.386 257.852 208.343C257.86 208.3 257.882 208.26 257.913 208.229C257.944 208.198 257.983 208.177 258.026 208.169C258.069 208.16 258.114 208.164 258.154 208.181C258.195 208.198 258.229 208.226 258.254 208.263C258.278 208.299 258.291 208.342 258.291 208.386C258.291 208.444 258.268 208.5 258.227 208.542C258.186 208.583 258.13 208.607 258.072 208.608H258.069Z" fill="url(#paint8_linear)"/>
<path d="M256.868 209.275C256.868 209.595 256.995 209.901 257.221 210.126C257.447 210.352 257.753 210.479 258.072 210.479C258.391 210.479 258.697 210.352 258.923 210.126C259.149 209.901 259.275 209.595 259.275 209.275C259.275 208.956 259.149 208.65 258.923 208.424C258.697 208.199 258.391 208.072 258.072 208.072C257.753 208.072 257.447 208.199 257.221 208.424C256.995 208.65 256.868 208.956 256.868 209.275ZM258.072 208.674C258.032 208.674 257.993 208.662 257.96 208.64C257.927 208.618 257.902 208.586 257.887 208.55C257.871 208.513 257.867 208.473 257.875 208.434C257.883 208.395 257.902 208.359 257.93 208.331C257.958 208.303 257.994 208.284 258.033 208.276C258.072 208.269 258.112 208.273 258.149 208.288C258.185 208.303 258.217 208.329 258.239 208.362C258.261 208.395 258.272 208.433 258.272 208.473C258.272 208.526 258.251 208.577 258.214 208.615C258.176 208.653 258.125 208.674 258.072 208.674Z" fill="#1890FF"/>
<path d="M273.168 202.06C254.776 212.88 244.177 202.852 244.177 202.852L273.168 202.06Z" fill="#FFD180"/>
<path d="M323.624 255.221C322.497 252.025 310.428 261.027 310.428 261.027L307.638 260.861L302.27 255.888L306.018 252.141L274.548 225.155C273.708 224.436 272.727 223.9 271.667 223.582C270.608 223.263 269.494 223.17 268.396 223.308L242.234 226.57C242.121 225.071 241.197 223.289 239.891 221.471C237.207 217.069 231.556 212.099 229.471 210.334L226.272 188.83L228.983 184.763C228.481 184.626 227.988 184.46 227.505 184.267L228.078 183.406L227.866 183.348L228.13 183.037H228.099L234.85 175.225C235.351 174.645 235.608 173.893 235.567 173.128C235.525 172.363 235.189 171.643 234.628 171.121L219.519 159.64C219.977 158.547 220.196 157.368 220.163 156.183C220.281 153.903 219.26 151.588 215.837 149.875C213.719 148.866 211.5 148.082 209.218 147.537C205.457 146.569 201.505 146.628 197.775 147.706C197.714 147.63 197.648 147.553 197.579 147.474C192.929 142.159 186.83 149.796 186.592 150.113L162.755 176.626C162.107 177.655 161.87 178.891 162.091 180.087C162.312 181.283 162.975 182.352 163.948 183.082L176.566 192.543L176.527 192.625L177.239 193.153C176.711 194.208 175.975 194.921 175.012 195.029L176.944 195.995C176.638 196.209 176.284 196.342 175.914 196.383L184.761 200.806C184.761 205.404 185.236 226.451 192.71 236.784C193.476 238.055 194.387 239.233 195.426 240.294C195.426 240.294 196.062 239.948 197.223 239.388L198.558 242.062C200.026 244.997 202.38 247.396 205.287 248.919C208.194 250.442 211.506 251.011 214.755 250.547L256.282 244.614L255.842 245.934L256.079 245.899L242.619 286.279L244.842 287.02L244.799 287.099L245.113 287.234L242.313 292.512L233.501 299.29C233.501 299.29 259.257 312.166 261.967 310.134C264.678 308.102 252.466 299.29 252.466 299.29L251.788 296.579L254.752 290.322L257.235 291.15L277.193 251.236L277.871 249.879L291.378 266.77L295.187 262.964L295.598 263.381L295.633 263.347L300.911 268.688L304.735 279.126C304.735 279.126 324.745 258.417 323.624 255.221ZM218.848 177.603L218.584 177.296C216.975 179.31 214.127 181.746 210.952 183.396V181.176L211.102 181.044V180.078C213.109 178.231 214.56 175.86 215.293 173.233C216.025 170.605 216.008 167.825 215.246 165.206L224.013 171.939L218.848 177.603ZM189.092 152.575L188.881 152.364L189.094 152.575H189.092ZM182.085 166.69C182.027 167.393 182.003 168.102 182.013 168.814C181.998 169.849 182.055 170.883 182.185 171.91C182.636 175.497 183.922 178.429 186.569 179.827C188.875 181.041 190.393 180.976 191.359 180.147L191.464 180.242C191.545 181.645 191.91 183.016 192.536 184.274C187.594 183.243 182.875 181.342 178.598 178.661C178.598 178.661 178.614 178.84 178.633 179.162L175.006 175.536L182.085 166.69Z" fill="url(#paint9_linear)"/>
<path d="M248.254 279.477L242.329 290.67L251.545 294.618L257.47 282.111L248.254 279.477Z" fill="#FDA57D"/>
<path d="M251.545 294.618L252.202 297.258C252.202 297.258 264.052 305.816 261.418 307.79C258.785 309.765 233.768 297.258 233.768 297.258L242.327 290.673L251.545 294.618Z" fill="#333333"/>
<path opacity="0.1" d="M256.839 283.273L247.515 280.166L244.741 285.402L253.957 289.353L256.839 283.273Z" fill="black"/>
<path d="M290.354 258.512L299.254 267.522L305.786 259.913L295.63 250.51L290.354 258.512Z" fill="#FDA57D"/>
<path opacity="0.1" d="M295.997 250.948L290.721 258.953L294.094 262.365L300.937 255.522L295.997 250.948Z" fill="black"/>
<path d="M305.785 259.911L308.496 260.072C308.496 260.072 320.214 251.333 321.309 254.437C322.404 257.541 302.969 277.662 302.969 277.662L299.256 267.522L305.785 259.911Z" fill="#333333"/>
<path d="M221.408 192.543L235.085 176.708C235.572 176.145 235.822 175.414 235.781 174.67C235.741 173.927 235.414 173.228 234.868 172.72L205.109 150.166L201.496 155.803L224.56 173.557L214.768 184.293L221.408 192.543Z" fill="#FDA57D"/>
<path opacity="0.1" d="M219.838 178.753L215.053 184L221.702 192.261L228.563 184.327C225.216 183.268 222.207 181.345 219.838 178.753Z" fill="black"/>
<path d="M181.702 195.979L166.218 184.367C165.273 183.658 164.629 182.619 164.415 181.458C164.2 180.296 164.43 179.096 165.059 178.096L188.229 152.314L192.979 157.065L176.951 177.03L186.426 186.505L181.702 195.979Z" fill="#FDA57D"/>
<path opacity="0.1" d="M178.427 193.641L180.96 195.541L185.711 186.066L179.746 180.12C179.873 182.137 180.229 189.972 178.427 193.641Z" fill="black"/>
<path d="M256.837 241.967L242.622 284.608L256.837 289.345L280.523 241.967L261.574 237.23L256.837 241.967Z" fill="#1890FF"/>
<path opacity="0.1" d="M256.177 243.284L255.467 245.416L270.392 243.284L276.222 250.573L279.866 243.284L260.914 238.546L256.177 243.284Z" fill="black"/>
<path d="M188.197 152.343C188.197 152.343 194.267 144.515 198.878 149.783C203.488 155.051 191.636 155.708 191.636 155.708L188.197 152.343Z" fill="#FDA57D"/>
<path d="M195.246 232.492L199.825 241.653C201.251 244.504 203.537 246.834 206.361 248.314C209.184 249.793 212.402 250.346 215.557 249.895L271.049 241.977L290.001 265.667L304.213 251.455L273.638 225.248C272.822 224.548 271.869 224.027 270.84 223.718C269.811 223.408 268.729 223.317 267.663 223.45L195.246 232.492Z" fill="#1890FF"/>
<path opacity="0.1" d="M181.322 181.385C181.322 181.385 182.57 196.771 177.833 197.299L187.308 202.049C187.308 202.049 186.78 229.948 196.782 239.951C196.782 239.951 215.206 229.948 234.684 230.476C254.161 231.004 229.933 211.524 229.933 211.524L226.734 189.957L229.373 185.998C225.805 184.929 222.611 182.876 220.157 180.073C217.518 183.364 211.485 187.827 206.252 187.827H203.987C196.186 187.827 187.888 186.243 181.314 182.047L181.322 181.385Z" fill="black"/>
<path d="M180.443 180.068C180.443 180.068 181.702 195.454 176.952 195.979L186.426 200.73C186.426 200.73 185.898 228.628 195.901 238.631C195.901 238.631 214.325 228.628 233.802 229.156C253.279 229.684 229.052 210.204 229.052 210.204L225.853 188.637L228.492 184.678C224.924 183.61 221.729 181.556 219.276 178.753C216.637 182.044 210.604 186.507 205.37 186.507H203.106C195.304 186.507 187.007 184.272 180.433 180.068H180.443Z" fill="#73D13D"/>
<path d="M192.924 175.729V181.007C192.924 183.688 193.989 186.259 195.885 188.154L207.138 199.408L210.883 191.915C211.536 190.61 211.876 189.172 211.876 187.713V175.729H192.924Z" fill="#FDA57D"/>
<path opacity="0.1" d="M193.069 181.823C193.069 182.018 193.069 182.211 193.088 182.406C195.694 184.73 199.065 186.014 202.557 186.011C206.05 186.008 209.419 184.719 212.021 182.39V176.534H193.069V181.823Z" fill="black"/>
<path d="M202.398 185.206C210.248 185.206 216.61 178.843 216.61 170.994C216.61 163.145 210.248 156.782 202.398 156.782C194.549 156.782 188.187 163.145 188.187 170.994C188.187 178.843 194.549 185.206 202.398 185.206Z" fill="#FDA57D"/>
<path opacity="0.1" d="M192.924 166.985H216.613C216.613 166.985 226.088 157.511 216.613 152.773C214.556 151.793 212.401 151.032 210.184 150.504C195.777 146.851 182.077 158.767 183.93 173.515C184.368 176.998 185.616 179.849 188.187 181.197C198.186 186.454 192.924 166.985 192.924 166.985Z" fill="black"/>
<path d="M192.924 166.328H216.613C216.613 166.328 226.088 156.853 216.613 152.116C214.556 151.136 212.401 150.375 210.184 149.846C195.777 146.194 182.077 158.11 183.93 172.857C184.368 176.341 185.616 179.191 188.187 180.54C198.186 185.805 192.924 166.328 192.924 166.328Z" fill="#333333"/>
<path d="M193.61 173.483C194.337 173.483 194.927 172.451 194.927 171.179C194.927 169.906 194.337 168.875 193.61 168.875C192.883 168.875 192.293 169.906 192.293 171.179C192.293 172.451 192.883 173.483 193.61 173.483Z" fill="#FDA57D"/>
<path opacity="0.1" d="M186.368 200.476L187.028 198.5L189.002 199.817L186.368 200.476Z" fill="black"/>
<path opacity="0.1" d="M229.088 210.207C229.088 210.207 221.92 213.638 219.944 216.937L229.088 210.207Z" fill="black"/>
<path opacity="0.1" d="M225.869 188.626L225.211 190.601L223.895 188.626H225.869Z" fill="black"/>
<path d="M192.924 166.328H216.613C216.613 166.328 226.088 156.853 216.613 152.116C214.556 151.136 212.401 150.375 210.184 149.846C195.777 146.194 182.077 158.11 183.93 172.857C184.368 176.341 185.616 179.191 188.187 180.54C198.186 185.805 192.924 166.328 192.924 166.328Z" fill="#333333"/>
<path opacity="0.1" d="M256.655 219.539C256.655 219.539 261.461 229.988 255.15 230.888C248.84 231.788 251.719 222.136 251.719 222.136C251.719 222.136 251.089 219.273 249.553 219.112" fill="black"/>
<path opacity="0.1" d="M262.461 219.286C262.461 219.286 256.747 229.267 262.952 230.713C269.156 232.16 267.145 222.302 267.145 222.302C267.145 222.302 268.027 219.507 269.573 219.481" fill="black"/>
<path d="M256.098 219.246C256.098 219.246 260.904 229.695 254.593 230.595C248.283 231.495 251.162 221.843 251.162 221.843C251.162 221.843 250.532 218.972 249.001 218.811" fill="#FFD180"/>
<path d="M262.907 218.845C262.907 218.845 257.183 228.829 263.398 230.265C269.613 231.7 267.591 221.854 267.591 221.854C267.591 221.854 268.473 219.059 270.019 219.032" fill="#FFD180"/>
<path opacity="0.5" d="M252.677 228.423H252.569V230.463H252.677V228.423Z" fill="#58555D"/>
<path opacity="0.5" d="M254.425 228.423H254.316V230.463H254.425V228.423Z" fill="#58555D"/>
<path opacity="0.5" d="M253.477 227.773H253.369V230.626H253.477V227.773Z" fill="#58555D"/>
<path opacity="0.5" d="M264.026 227.987H263.918V230.027H264.026V227.987Z" fill="#58555D"/>
<path opacity="0.5" d="M265.773 227.987H265.665V230.027H265.773V227.987Z" fill="#58555D"/>
<path opacity="0.5" d="M264.826 227.335H264.717V230.188H264.826V227.335Z" fill="#58555D"/>
<g opacity="0.5">
<path opacity="0.5" d="M260.483 347.794C267.06 345.588 270.603 338.469 268.397 331.892C266.192 325.315 259.072 321.772 252.496 323.978C245.919 326.183 242.376 333.303 244.581 339.879C246.787 346.456 253.906 349.999 260.483 347.794Z" fill="url(#paint10_linear)"/>
</g>
<path d="M260.228 347.033C266.384 344.968 269.701 338.304 267.637 332.147C265.572 325.991 258.907 322.674 252.751 324.738C246.594 326.803 243.277 333.468 245.342 339.624C247.407 345.781 254.071 349.098 260.228 347.033Z" fill="#F55F44"/>
<g opacity="0.5">
<path opacity="0.5" d="M225.198 351.635C223.509 352.203 221.406 351.799 220.622 350.178C220.171 349.241 220.279 348.194 220.384 347.18C220.5 346.069 220.598 345.111 219.973 344.491C219.649 344.216 219.269 344.017 218.859 343.908C218.331 343.731 217.761 343.583 217.217 343.44C216.248 343.218 215.301 342.907 214.388 342.511C212.593 341.67 211.445 340.247 211.319 338.706C211.211 337.386 211.847 336.183 212.454 335.029C213.061 333.876 213.673 332.731 213.383 331.599C212.989 330.07 211.155 329.345 209.54 328.695L209.276 328.595C207.302 327.803 205.185 326.133 205.713 323.99C205.898 323.243 206.37 322.67 206.827 322.142C207.136 321.799 207.402 321.419 207.619 321.01C208.331 319.508 207.355 317.772 206.919 317.094C206.579 316.566 206.175 316.08 205.784 315.597C205.172 314.888 204.63 314.121 204.167 313.306L204.093 313.169C203.021 311.142 203 311.058 203.09 308.849V308.585L204.024 308.622V308.886C203.945 310.889 203.945 310.889 204.919 312.731L204.993 312.868C205.428 313.629 205.936 314.346 206.51 315.009C206.914 315.507 207.331 316.025 207.698 316.576C208.83 318.289 209.107 320.049 208.461 321.409C208.208 321.886 207.896 322.329 207.532 322.728C207.125 323.214 206.74 323.673 206.608 324.211C206.196 325.877 208.3 327.202 209.609 327.724L209.859 327.824C211.593 328.511 213.752 329.366 214.264 331.353C214.644 332.828 213.939 334.158 213.256 335.446C212.683 336.528 212.14 337.558 212.227 338.613C212.343 340.031 213.612 341.11 214.76 341.651C215.621 342.022 216.514 342.314 217.428 342.522C217.988 342.667 218.566 342.82 219.131 343.008C219.679 343.158 220.186 343.435 220.609 343.815C221.551 344.75 221.419 346.03 221.292 347.267C221.197 348.191 221.105 349.065 221.443 349.761C222.052 351.023 223.942 351.208 225.256 350.587C226.333 350.081 227.18 349.218 228.078 348.307C228.368 348.012 228.669 347.708 228.975 347.418C230.648 345.834 232.34 345.143 233.87 345.409C234.356 345.51 234.83 345.663 235.282 345.866C235.635 346.021 235.999 346.146 236.372 346.241C237.205 346.389 238.062 346.218 238.774 345.762C239.485 345.306 239.999 344.599 240.212 343.781C240.247 343.625 240.271 343.462 240.297 343.29C240.379 342.741 240.471 342.118 240.909 341.635C241.347 341.152 242.041 340.975 242.535 340.862L247.629 339.685L247.84 340.595L242.746 341.773C242.263 341.883 241.843 341.999 241.603 342.263C241.363 342.527 241.292 342.968 241.226 343.427C241.199 343.607 241.17 343.794 241.131 343.979C240.863 345.038 240.201 345.956 239.28 346.544C238.359 347.133 237.249 347.348 236.175 347.146C235.751 347.04 235.337 346.899 234.937 346.724C234.545 346.547 234.135 346.413 233.715 346.322C232.163 346.059 230.635 347.133 229.624 348.088C229.331 348.365 229.036 348.666 228.751 348.954C227.835 349.883 226.89 350.846 225.663 351.424C225.512 351.503 225.357 351.574 225.198 351.635Z" fill="url(#paint11_linear)"/>
</g>
<path d="M225.325 351.171C223.636 351.738 221.532 351.334 220.749 349.714C220.297 348.777 220.405 347.729 220.511 346.716C220.627 345.605 220.725 344.647 220.099 344.026C219.776 343.751 219.396 343.552 218.986 343.443C218.458 343.266 217.888 343.119 217.344 342.976C216.375 342.753 215.428 342.442 214.515 342.047C212.72 341.205 211.572 339.783 211.445 338.241C211.337 336.922 211.973 335.718 212.58 334.565C213.187 333.412 213.8 332.266 213.509 331.134C213.116 329.606 211.282 328.88 209.667 328.231L209.403 328.131C207.429 327.339 205.312 325.668 205.84 323.525C206.025 322.778 206.497 322.206 206.954 321.678C207.263 321.335 207.529 320.954 207.745 320.546C208.458 319.044 207.481 317.307 207.046 316.629C206.706 316.101 206.302 315.616 205.911 315.133C205.299 314.423 204.757 313.656 204.293 312.842L204.219 312.705C203.148 310.678 203.127 310.593 203.217 308.384V308.12L204.151 308.157V308.421C204.072 310.424 204.072 310.424 205.045 312.267L205.119 312.404C205.555 313.165 206.063 313.881 206.637 314.544C207.041 315.043 207.458 315.56 207.825 316.112C208.957 317.825 209.234 319.585 208.587 320.944C208.335 321.422 208.022 321.865 207.658 322.264C207.252 322.749 206.867 323.209 206.735 323.747C206.323 325.412 208.426 326.737 209.735 327.26L209.986 327.36C211.72 328.046 213.879 328.901 214.391 330.889C214.771 332.364 214.066 333.694 213.383 334.982C212.81 336.064 212.266 337.093 212.353 338.149C212.469 339.566 213.739 340.646 214.887 341.187C215.748 341.558 216.641 341.849 217.555 342.058C218.115 342.203 218.693 342.356 219.257 342.543C219.806 342.694 220.312 342.97 220.735 343.351C221.678 344.285 221.546 345.565 221.419 346.803C221.324 347.727 221.232 348.6 221.569 349.297C222.179 350.558 224.069 350.743 225.383 350.123C226.46 349.616 227.307 348.753 228.204 347.843C228.495 347.547 228.795 347.244 229.102 346.953C230.775 345.37 232.467 344.678 233.997 344.945C234.483 345.046 234.956 345.199 235.409 345.401C235.762 345.556 236.126 345.682 236.499 345.776C237.331 345.924 238.189 345.753 238.9 345.298C239.612 344.842 240.126 344.134 240.339 343.316C240.373 343.161 240.397 342.997 240.424 342.826C240.505 342.277 240.598 341.654 241.036 341.171C241.474 340.688 242.168 340.511 242.662 340.398L247.755 339.22L247.966 340.131L242.873 341.308C242.39 341.419 241.97 341.535 241.73 341.799C241.49 342.063 241.419 342.504 241.353 342.963C241.326 343.142 241.297 343.33 241.258 343.514C240.99 344.574 240.328 345.491 239.407 346.08C238.486 346.668 237.375 346.883 236.301 346.681C235.878 346.576 235.463 346.434 235.063 346.259C234.671 346.083 234.262 345.948 233.842 345.858C232.29 345.594 230.762 346.668 229.751 347.624C229.458 347.901 229.162 348.202 228.877 348.489C227.961 349.418 227.017 350.382 225.789 350.959C225.639 351.039 225.484 351.109 225.325 351.171Z" fill="#F55F44"/>
<path opacity="0.2" d="M255.805 327.51C255.805 327.51 262.31 326.526 265.496 335.605" stroke="black" stroke-miterlimit="10"/>
<path opacity="0.2" d="M248.608 341.973C248.608 341.973 243.778 335.138 252.384 327.6" stroke="black" stroke-miterlimit="10"/>
<path opacity="0.2" d="M250.584 339.476C250.584 339.476 248.254 335.89 250.698 332.675" stroke="black" stroke-miterlimit="10"/>
<path opacity="0.2" d="M254.757 331.313C254.757 331.313 257.842 332.533 258.275 338.025" stroke="black" stroke-miterlimit="10"/>
<path opacity="0.2" d="M258.378 324.884C258.378 324.884 263.197 325.806 266.559 332.432" stroke="black" stroke-miterlimit="10"/>
<path opacity="0.2" d="M252.168 326.967C252.168 326.967 254.446 325.357 256.56 326.199" stroke="black" stroke-miterlimit="10"/>
<path opacity="0.2" d="M253.889 342.166C253.889 342.166 256.934 344.103 264.783 338.513" stroke="black" stroke-miterlimit="10"/>
<path opacity="0.2" d="M253.348 346.019C253.348 346.019 255.253 347.917 259.22 346.304" stroke="black" stroke-miterlimit="10"/>
<path opacity="0.2" d="M247.697 329.173C246.879 330.387 246.329 331.761 246.084 333.204C245.84 334.647 245.905 336.126 246.277 337.542" stroke="black" stroke-miterlimit="10"/>
<path opacity="0.2" d="M250.255 341.419C250.255 341.419 250.004 343.195 251.991 344.077" stroke="black" stroke-miterlimit="10"/>
<path opacity="0.2" d="M266.053 339.363C266.053 339.363 265.931 342.794 264.031 343" stroke="black" stroke-miterlimit="10"/>
<path opacity="0.2" d="M255.625 344.409C256.772 344.562 257.939 344.451 259.037 344.086C260.134 343.72 261.134 343.108 261.96 342.298" stroke="black" stroke-miterlimit="10"/>
<path opacity="0.2" d="M258.56 332.153C258.56 332.153 260.21 333.29 260.046 335.32" stroke="black" stroke-miterlimit="10"/>
<path opacity="0.2" d="M252.268 334.404C252.268 334.404 251.809 336.814 252.994 338.247" stroke="black" stroke-miterlimit="10"/>
<path opacity="0.2" d="M253.662 333.937C253.662 333.937 255.356 336.048 254.894 337.611" stroke="black" stroke-miterlimit="10"/>
</g>
<path d="M147.057 430.337C149.973 430.884 152.108 431.743 153.463 432.915C154.817 434.087 155.494 435.727 155.494 437.836C155.494 439.138 155.233 440.323 154.712 441.391C154.192 442.433 153.45 443.318 152.486 444.047C151.549 444.776 150.39 445.336 149.01 445.727C147.656 446.117 146.119 446.312 144.401 446.312C142.786 446.312 141.315 446.117 139.987 445.727C138.659 445.336 137.513 444.776 136.55 444.047C135.612 443.318 134.87 442.446 134.323 441.43C133.776 440.388 133.49 439.217 133.464 437.915H138.854C139.062 439.112 139.648 440.089 140.612 440.844C141.575 441.573 142.877 441.938 144.518 441.938C146.132 441.938 147.395 441.625 148.307 441C149.218 440.349 149.674 439.464 149.674 438.344C149.674 437.407 149.296 436.665 148.541 436.118C147.812 435.571 146.536 435.115 144.713 434.751L141.901 434.204C136.484 433.11 133.776 430.571 133.776 426.587C133.776 425.337 134.037 424.205 134.558 423.189C135.104 422.173 135.847 421.314 136.784 420.611C137.721 419.882 138.815 419.322 140.065 418.931C141.341 418.541 142.721 418.346 144.205 418.346C145.898 418.346 147.395 418.567 148.697 419.01C149.999 419.426 151.093 420.025 151.978 420.806C152.89 421.561 153.58 422.473 154.048 423.54C154.517 424.582 154.778 425.728 154.83 426.978H149.4C149.322 425.728 148.84 424.712 147.955 423.931C147.096 423.15 145.872 422.759 144.283 422.759C142.799 422.759 141.614 423.085 140.729 423.736C139.87 424.361 139.44 425.194 139.44 426.236C139.44 427.173 139.805 427.915 140.534 428.462C141.289 428.983 142.526 429.413 144.244 429.751L147.057 430.337ZM167.96 442.055C168.247 442.055 168.533 442.055 168.82 442.055C169.106 442.029 169.418 441.99 169.757 441.938V445.805C169.366 445.883 169.002 445.948 168.663 446C168.325 446.026 167.96 446.039 167.57 446.039C166.424 446.117 165.395 446.065 164.484 445.883C163.572 445.674 162.804 445.31 162.179 444.789C161.554 444.242 161.073 443.513 160.734 442.602C160.396 441.664 160.226 440.493 160.226 439.086V429.673H157.141V426.079H160.461V421.392H165.734V426.079H169.523V429.673H165.734V439.438C165.734 440.297 165.89 440.935 166.203 441.352C166.515 441.768 167.101 442.003 167.96 442.055ZM181.915 425.65C183.295 425.65 184.532 425.819 185.625 426.158C186.719 426.496 187.644 426.978 188.399 427.603C189.18 428.202 189.766 428.944 190.156 429.829C190.573 430.688 190.781 431.639 190.781 432.681V446H185.547V442.641H185.43C185.17 443.24 184.792 443.774 184.297 444.242C183.803 444.685 183.243 445.063 182.618 445.375C182.019 445.688 181.368 445.922 180.665 446.078C179.962 446.234 179.259 446.312 178.556 446.312C177.618 446.312 176.733 446.169 175.899 445.883C175.092 445.596 174.376 445.193 173.751 444.672C173.152 444.151 172.684 443.526 172.345 442.797C172.007 442.068 171.837 441.248 171.837 440.336C171.837 438.435 172.527 436.964 173.907 435.923C175.288 434.881 177.28 434.282 179.884 434.126L185.274 433.813V432.954C185.274 431.86 184.961 431.014 184.336 430.415C183.711 429.816 182.813 429.517 181.641 429.517C180.6 429.517 179.727 429.738 179.024 430.181C178.347 430.623 177.931 431.261 177.774 432.095H172.814C173.048 430.142 173.96 428.579 175.548 427.407C177.136 426.236 179.259 425.65 181.915 425.65ZM185.274 436.821L180.743 437.133C178.399 437.342 177.228 438.292 177.228 439.985C177.228 440.818 177.54 441.469 178.165 441.938C178.79 442.406 179.558 442.641 180.47 442.641C181.121 442.641 181.732 442.524 182.305 442.289C182.878 442.029 183.386 441.69 183.829 441.274C184.271 440.857 184.623 440.388 184.883 439.868C185.144 439.321 185.274 438.748 185.274 438.149V436.821ZM212.839 425.923C212.526 426.991 212.11 428.28 211.589 429.79C211.094 431.3 210.547 432.928 209.949 434.673C209.376 436.417 208.764 438.214 208.113 440.063C207.488 441.912 206.889 443.708 206.316 445.453C205.795 447.094 205.196 448.422 204.519 449.437C203.842 450.479 203.061 451.286 202.176 451.859C201.316 452.432 200.353 452.796 199.285 452.953C198.218 453.135 197.046 453.161 195.77 453.031C195.483 453.005 195.249 452.966 195.067 452.914C194.884 452.888 194.65 452.836 194.364 452.757V449.047C194.65 449.073 194.897 449.099 195.106 449.125C195.314 449.151 195.522 449.164 195.731 449.164C196.225 449.164 196.668 449.151 197.059 449.125C197.475 449.099 197.84 449.008 198.152 448.851C198.491 448.695 198.79 448.461 199.051 448.148C199.337 447.836 199.598 447.406 199.832 446.859C198.608 443.344 197.371 439.855 196.121 436.391C194.897 432.902 193.661 429.413 192.411 425.923H198.27L202.644 441.664H202.761L207.175 425.923H212.839ZM246.434 422.994H238.543V446H232.919V422.994H225.029V418.658H246.434V422.994ZM266.56 425.923V446H261.326V441.899H261.209C260.949 442.758 260.558 443.474 260.037 444.047C259.542 444.62 258.983 445.076 258.358 445.414C257.733 445.753 257.069 445.987 256.366 446.117C255.688 446.247 255.037 446.312 254.413 446.312C252.095 446.312 250.311 445.661 249.061 444.359C247.811 443.031 247.186 441.039 247.186 438.383V425.923H252.616V437.368C252.616 438.93 252.954 440.128 253.631 440.961C254.308 441.768 255.35 442.172 256.756 442.172C258.11 442.172 259.165 441.664 259.92 440.649C260.701 439.607 261.092 438.279 261.092 436.665V425.923H266.56ZM281.914 425.65C284.231 425.65 286.028 426.301 287.304 427.603C288.58 428.879 289.218 430.871 289.218 433.579V446H283.867V434.634C283.867 433.071 283.515 431.886 282.812 431.079C282.135 430.272 281.081 429.868 279.648 429.868C278.32 429.868 277.253 430.389 276.445 431.431C275.664 432.472 275.274 433.774 275.274 435.337V446H269.844V425.923H275.196V430.064H275.235C275.807 428.449 276.641 427.316 277.734 426.665C278.854 425.988 280.247 425.65 281.914 425.65ZM297.424 437.094C297.476 438.709 297.945 439.972 298.83 440.883C299.715 441.795 300.848 442.25 302.228 442.25C303.296 442.25 304.181 442.016 304.884 441.547C305.587 441.052 306.082 440.31 306.368 439.321H311.446C311.082 441.638 310.105 443.383 308.517 444.555C306.954 445.727 304.819 446.312 302.111 446.312C298.96 446.312 296.499 445.44 294.729 443.695C292.958 441.925 292.072 439.347 292.072 435.962C292.072 434.347 292.307 432.902 292.776 431.626C293.244 430.35 293.908 429.269 294.768 428.384C295.653 427.499 296.708 426.822 297.931 426.353C299.181 425.884 300.562 425.65 302.072 425.65C303.582 425.65 304.923 425.897 306.095 426.392C307.293 426.861 308.295 427.538 309.103 428.423C309.936 429.282 310.561 430.337 310.978 431.587C311.394 432.837 311.602 434.23 311.602 435.766V437.094H297.424ZM302.072 429.673C300.796 429.673 299.741 430.077 298.908 430.884C298.101 431.665 297.619 432.72 297.463 434.048H306.486C306.355 432.772 305.9 431.73 305.119 430.923C304.337 430.09 303.322 429.673 302.072 429.673ZM321.857 425.65C323.497 425.65 324.864 425.962 325.958 426.587C327.052 427.212 327.937 428.124 328.614 429.321H328.692V418.658H334.161V446H328.887V442.758H328.77C328.223 443.826 327.338 444.685 326.114 445.336C324.89 445.987 323.458 446.312 321.818 446.312C320.724 446.312 319.695 446.091 318.732 445.648C317.768 445.18 316.909 444.516 316.154 443.656C315.425 442.771 314.839 441.69 314.396 440.414C313.98 439.138 313.771 437.68 313.771 436.04C313.771 434.399 313.967 432.941 314.357 431.665C314.774 430.363 315.347 429.269 316.076 428.384C316.805 427.499 317.651 426.822 318.615 426.353C319.604 425.884 320.685 425.65 321.857 425.65ZM324.005 442.094C325.437 442.094 326.583 441.56 327.442 440.493C328.328 439.425 328.77 437.941 328.77 436.04C328.77 434.139 328.328 432.641 327.442 431.548C326.583 430.454 325.437 429.907 324.005 429.907C322.521 429.907 321.336 430.454 320.45 431.548C319.565 432.615 319.122 434.113 319.122 436.04C319.122 437.941 319.565 439.425 320.45 440.493C321.336 441.56 322.521 442.094 324.005 442.094ZM338.764 436.782L338.413 429.009V418.658H343.959V429.009L343.569 436.782H338.764ZM341.186 439.711C342.228 439.711 343.048 440.024 343.647 440.649C344.246 441.274 344.545 442.003 344.545 442.836C344.545 443.748 344.246 444.503 343.647 445.102C343.048 445.701 342.228 446 341.186 446C340.145 446 339.324 445.701 338.725 445.102C338.126 444.503 337.827 443.748 337.827 442.836C337.827 442.003 338.126 441.274 338.725 440.649C339.324 440.024 340.145 439.711 341.186 439.711Z" fill="black"/>
<path d="M155.352 491C155.352 490.552 155.508 490.163 155.817 489.833C156.127 489.492 156.564 489.321 157.13 489.322C157.62 489.323 158.031 489.456 158.361 489.723C158.692 489.99 158.857 490.369 158.856 490.86C158.856 491.105 158.802 491.329 158.695 491.532C158.599 491.734 158.46 491.905 158.279 492.043C158.108 492.171 157.905 492.262 157.67 492.315C157.446 492.357 157.212 492.346 156.966 492.282C156.977 492.517 157.019 492.741 157.094 492.954C157.179 493.167 157.307 493.354 157.477 493.514C157.658 493.675 157.893 493.803 158.181 493.899C158.479 493.996 158.842 494.044 159.268 494.044C159.748 494.045 160.138 493.987 160.437 493.87C160.746 493.742 160.986 493.577 161.157 493.375C161.339 493.161 161.462 492.911 161.526 492.623C161.601 492.335 161.639 492.026 161.639 491.695L161.641 489.903C161.642 489.54 161.599 489.199 161.514 488.879C161.429 488.548 161.286 488.26 161.083 488.015C160.892 487.758 160.63 487.561 160.3 487.422C159.969 487.272 159.564 487.197 159.084 487.196C158.818 487.196 158.556 487.228 158.3 487.291C158.044 487.355 157.804 487.451 157.58 487.579C157.366 487.706 157.174 487.861 157.003 488.042C156.832 488.223 156.709 488.426 156.635 488.649L155.083 488.648C155.168 488.221 155.334 487.837 155.58 487.496C155.826 487.155 156.13 486.868 156.493 486.633C156.856 486.388 157.256 486.202 157.693 486.075C158.142 485.947 158.606 485.884 159.086 485.884C160.419 485.886 161.443 486.228 162.157 486.912C162.87 487.585 163.227 488.588 163.225 489.921L163.223 491.697C163.222 492.956 162.895 493.873 162.244 494.448C161.593 495.023 160.6 495.31 159.267 495.308C156.654 495.306 155.348 494.115 155.351 491.736L155.352 491ZM156.488 490.857C156.488 491.049 156.557 491.215 156.696 491.354C156.834 491.492 156.999 491.562 157.191 491.562C157.373 491.562 157.533 491.493 157.672 491.355C157.81 491.216 157.88 491.051 157.88 490.859C157.88 490.678 157.811 490.517 157.673 490.379C157.534 490.24 157.374 490.17 157.193 490.17C157.001 490.17 156.835 490.239 156.697 490.378C156.558 490.516 156.488 490.676 156.488 490.857ZM159.236 481.564C159.823 481.565 160.335 481.672 160.772 481.886C161.199 482.089 161.55 482.362 161.827 482.703L161.829 481.295L163.205 481.297L163.201 484.673L155.393 484.664L155.394 484.168C155.511 483.816 155.672 483.48 155.875 483.161C156.067 482.841 156.318 482.564 156.628 482.329C156.927 482.095 157.295 481.909 157.732 481.771C158.159 481.633 158.66 481.564 159.236 481.564ZM159.235 482.572C158.905 482.572 158.622 482.604 158.387 482.667C158.142 482.721 157.934 482.806 157.763 482.923C157.592 483.029 157.448 483.157 157.33 483.306C157.202 483.455 157.095 483.615 157.01 483.786L161.426 483.791C161.245 483.439 160.989 483.15 160.659 482.926C160.329 482.691 159.854 482.573 159.235 482.572ZM169.232 485.896C170.618 485.897 171.631 486.224 172.27 486.875C172.92 487.516 173.245 488.434 173.243 489.628L173.237 495.196L171.653 495.195L171.659 489.771C171.66 488.939 171.469 488.304 171.085 487.866C170.702 487.417 170.073 487.193 169.198 487.192C168.483 487.191 167.886 487.329 167.406 487.606C166.936 487.882 166.637 488.357 166.508 489.029L168.412 489.031L168.411 489.703C167.931 489.884 167.584 490.145 167.37 490.486C167.157 490.827 167.049 491.285 167.049 491.861L167.045 495.189L165.461 495.187L165.465 492.099C165.465 491.523 165.583 491.028 165.818 490.612C166.064 490.186 166.438 489.914 166.939 489.797L165.035 489.795C165.037 488.515 165.39 487.545 166.094 486.884C166.81 486.224 167.856 485.894 169.232 485.896ZM175.646 485.967L177.23 485.969L177.223 492.113C177.341 492.07 177.474 492.049 177.623 492.049C177.847 492.05 178.055 492.092 178.247 492.178C178.439 492.253 178.604 492.36 178.743 492.499C178.881 492.637 178.988 492.803 179.062 492.995C179.148 493.187 179.19 493.39 179.19 493.603C179.189 494.062 179.023 494.456 178.692 494.786C178.372 495.106 177.94 495.266 177.396 495.265C176.852 495.264 176.42 495.104 176.1 494.784C175.791 494.453 175.637 494.058 175.638 493.599L175.646 485.967ZM181.87 485.974L181.863 492.118C181.981 492.076 182.114 492.054 182.263 492.055C182.487 492.055 182.695 492.098 182.887 492.183C183.079 492.258 183.244 492.365 183.383 492.504C183.521 492.643 183.628 492.808 183.702 493C183.788 493.192 183.83 493.395 183.83 493.608C183.829 494.067 183.663 494.461 183.332 494.792C183.012 495.111 182.58 495.271 182.036 495.27C181.492 495.27 181.06 495.109 180.74 494.789C180.431 494.458 180.277 494.063 180.278 493.604L180.286 485.972L181.87 485.974ZM182.774 493.607C182.774 493.415 182.705 493.25 182.566 493.111C182.428 492.972 182.268 492.903 182.087 492.902C181.895 492.902 181.724 492.971 181.574 493.11C181.435 493.248 181.366 493.414 181.366 493.606C181.366 493.787 181.435 493.952 181.573 494.102C181.722 494.241 181.893 494.31 182.085 494.31C182.266 494.311 182.426 494.241 182.565 494.103C182.704 493.954 182.774 493.788 182.774 493.607ZM178.134 493.602C178.134 493.41 178.065 493.244 177.926 493.106C177.788 492.967 177.628 492.897 177.447 492.897C177.255 492.897 177.084 492.966 176.934 493.104C176.795 493.243 176.726 493.408 176.726 493.6C176.726 493.782 176.795 493.947 176.933 494.096C177.082 494.235 177.253 494.305 177.445 494.305C177.626 494.305 177.786 494.236 177.925 494.098C178.064 493.948 178.134 493.783 178.134 493.602ZM187.603 491.837C187.602 492.242 187.634 492.583 187.697 492.861C187.772 493.138 187.889 493.368 188.049 493.549C188.219 493.72 188.443 493.848 188.72 493.934C189.008 494.009 189.365 494.047 189.792 494.047C190.208 494.048 190.555 494.011 190.832 493.936C191.12 493.851 191.344 493.723 191.505 493.553C191.676 493.372 191.793 493.143 191.857 492.865C191.932 492.588 191.97 492.247 191.971 491.842L191.98 483.218L193.564 483.219L193.554 492.003C193.554 492.686 193.468 493.246 193.297 493.683C193.125 494.11 192.874 494.451 192.543 494.706C192.223 494.951 191.828 495.121 191.359 495.217C190.9 495.302 190.377 495.344 189.791 495.343C189.204 495.342 188.676 495.299 188.207 495.213C187.738 495.117 187.338 494.946 187.007 494.7C186.688 494.444 186.437 494.102 186.257 493.675C186.086 493.238 186.002 492.677 186.002 491.995L186.006 489.067C185.835 489.131 185.643 489.146 185.43 489.114C185.024 489.06 184.694 488.895 184.438 488.617C184.183 488.329 184.055 487.982 184.055 487.577C184.056 487.118 184.216 486.729 184.537 486.409C184.857 486.079 185.289 485.914 185.833 485.915C186.377 485.915 186.804 486.081 187.113 486.412C187.432 486.732 187.597 487.122 187.607 487.581L187.603 491.837ZM185.095 487.578C185.095 487.77 185.164 487.94 185.303 488.09C185.452 488.229 185.617 488.298 185.799 488.299C185.991 488.299 186.156 488.23 186.295 488.091C186.434 487.942 186.503 487.771 186.503 487.579C186.504 487.398 186.434 487.238 186.296 487.099C186.157 486.96 185.992 486.891 185.8 486.891C185.619 486.89 185.453 486.959 185.304 487.098C185.165 487.236 185.096 487.396 185.095 487.578ZM193.068 481.027L193.068 481.827C193.067 482.371 192.992 482.829 192.842 483.203C192.692 483.565 192.484 483.858 192.217 484.082C191.939 484.305 191.614 484.465 191.24 484.561C190.867 484.656 190.456 484.704 190.008 484.703C189.934 484.703 189.859 484.703 189.784 484.703C189.699 484.703 189.614 484.698 189.528 484.687L189.529 483.903C189.668 483.818 189.796 483.679 189.914 483.487C190.021 483.295 190.074 483.029 190.075 482.687C190.075 482.293 189.931 482.026 189.644 481.887L188.635 482.478L187.532 481.788C187.446 481.842 187.371 481.922 187.307 482.028C187.233 482.135 187.184 482.252 187.163 482.38C187.28 482.359 187.398 482.354 187.515 482.364C187.632 482.365 187.739 482.375 187.835 482.397C188.112 482.482 188.325 482.627 188.474 482.83C188.613 483.032 188.682 483.256 188.682 483.502C188.681 483.896 188.558 484.195 188.313 484.397C188.056 484.589 187.774 484.685 187.464 484.684C187.027 484.684 186.664 484.545 186.377 484.267C186.078 483.99 185.93 483.579 185.93 483.035C185.93 482.779 185.957 482.528 186.011 482.283C186.065 482.027 186.156 481.803 186.284 481.611C186.412 481.409 186.583 481.243 186.796 481.116C186.999 480.988 187.255 480.919 187.565 480.909L188.636 481.598L189.661 480.911C189.863 480.932 190.055 480.981 190.236 481.056C190.418 481.12 190.578 481.221 190.716 481.36C190.855 481.488 190.966 481.664 191.052 481.888C191.126 482.113 191.163 482.385 191.163 482.705C191.162 483.131 191.007 483.499 190.697 483.808C190.857 483.776 191.012 483.723 191.162 483.649C191.3 483.574 191.428 483.468 191.546 483.329C191.653 483.19 191.744 483.009 191.818 482.785C191.883 482.561 191.915 482.279 191.915 481.937L191.916 481.025L193.068 481.027ZM187.93 483.469C187.93 483.33 187.882 483.213 187.786 483.117C187.69 483.01 187.568 482.957 187.418 482.956C187.28 482.956 187.157 483.009 187.05 483.116C186.933 483.212 186.874 483.329 186.874 483.468C186.874 483.617 186.932 483.745 187.049 483.852C187.156 483.948 187.278 483.996 187.417 483.996C187.566 483.997 187.689 483.949 187.785 483.853C187.881 483.746 187.93 483.618 187.93 483.469ZM198.368 491.849C198.368 492.254 198.399 492.595 198.463 492.873C198.537 493.15 198.654 493.38 198.814 493.561C198.985 493.732 199.209 493.86 199.486 493.946C199.774 494.021 200.131 494.059 200.558 494.059C200.974 494.06 201.32 494.023 201.598 493.948C201.886 493.863 202.11 493.736 202.27 493.565C202.441 493.384 202.559 493.155 202.623 492.878C202.698 492.6 202.736 492.259 202.736 491.854L202.743 485.998L204.327 486L204.32 492.016C204.319 492.698 204.233 493.258 204.062 493.695C203.891 494.122 203.64 494.463 203.309 494.718C202.989 494.963 202.594 495.134 202.124 495.229C201.666 495.314 201.143 495.356 200.556 495.355C199.97 495.355 199.442 495.311 198.972 495.225C198.503 495.129 198.103 494.958 197.773 494.712C197.453 494.456 197.203 494.114 197.022 493.687C196.852 493.25 196.767 492.69 196.768 492.007L196.771 489.079C196.601 489.143 196.409 489.159 196.195 489.126C195.79 489.073 195.46 488.907 195.204 488.629C194.948 488.341 194.821 487.994 194.821 487.589C194.822 487.13 194.982 486.741 195.302 486.421C195.623 486.091 196.055 485.926 196.599 485.927C197.143 485.927 197.569 486.093 197.878 486.424C198.198 486.745 198.363 487.134 198.373 487.593L198.368 491.849ZM195.861 487.59C195.861 487.782 195.93 487.953 196.068 488.102C196.218 488.241 196.383 488.311 196.564 488.311C196.756 488.311 196.922 488.242 197.06 488.103C197.199 487.954 197.269 487.784 197.269 487.592C197.269 487.41 197.2 487.25 197.062 487.111C196.923 486.972 196.758 486.903 196.566 486.903C196.384 486.903 196.219 486.972 196.07 487.11C195.931 487.249 195.861 487.409 195.861 487.59ZM206.724 486.002L208.308 486.004L208.302 492.148C208.419 492.106 208.552 492.084 208.702 492.084C208.926 492.085 209.134 492.128 209.325 492.213C209.517 492.288 209.683 492.395 209.821 492.534C209.96 492.673 210.066 492.838 210.141 493.03C210.226 493.222 210.268 493.425 210.268 493.638C210.267 494.097 210.102 494.491 209.77 494.822C209.45 495.141 209.018 495.301 208.474 495.3C207.93 495.3 207.498 495.139 207.178 494.819C206.87 494.488 206.715 494.093 206.716 493.634L206.724 486.002ZM209.212 493.637C209.212 493.445 209.143 493.28 209.004 493.141C208.866 493.002 208.706 492.932 208.525 492.932C208.333 492.932 208.162 493.001 208.012 493.14C207.874 493.278 207.804 493.443 207.804 493.635C207.804 493.817 207.873 493.982 208.011 494.132C208.16 494.271 208.331 494.34 208.523 494.34C208.704 494.34 208.864 494.271 209.003 494.133C209.142 493.984 209.212 493.818 209.212 493.637ZM211.695 489.752C211.696 488.397 212.049 487.427 212.754 486.841C213.469 486.245 214.478 485.947 215.779 485.949C217.091 485.95 218.104 486.25 218.818 486.848C219.532 487.435 219.888 488.406 219.887 489.761L219.881 495.249L218.297 495.247L218.303 489.839C218.303 489.445 218.261 489.087 218.176 488.767C218.091 488.447 217.947 488.175 217.745 487.951C217.553 487.727 217.297 487.556 216.977 487.438C216.658 487.32 216.258 487.261 215.778 487.261C215.308 487.26 214.914 487.318 214.593 487.435C214.273 487.552 214.017 487.728 213.825 487.962C213.633 488.186 213.494 488.463 213.408 488.794C213.322 489.114 213.279 489.482 213.279 489.898L213.274 493.658C213.584 493.381 213.899 493.077 214.219 492.747C214.551 492.416 214.833 492.129 215.068 491.884C214.781 491.766 214.551 491.584 214.381 491.339C214.211 491.083 214.126 490.789 214.126 490.459C214.127 490.032 214.276 489.669 214.575 489.371C214.874 489.062 215.274 488.908 215.776 488.909C216.277 488.909 216.677 489.064 216.975 489.374C217.284 489.673 217.439 490.036 217.438 490.462C217.438 490.782 217.283 491.161 216.973 491.598C216.674 492.024 216.3 492.461 215.851 492.909C215.403 493.345 214.928 493.772 214.426 494.187C213.935 494.602 213.497 494.954 213.113 495.241L211.689 495.24L211.695 489.752ZM215.102 490.46C215.102 490.641 215.166 490.801 215.294 490.94C215.432 491.068 215.592 491.132 215.773 491.133C215.955 491.133 216.109 491.069 216.238 490.941C216.376 490.803 216.446 490.643 216.446 490.461C216.446 490.28 216.377 490.125 216.239 489.997C216.111 489.869 215.956 489.805 215.775 489.805C215.593 489.804 215.433 489.868 215.295 489.996C215.166 490.124 215.102 490.278 215.102 490.46ZM215.955 481.629C216.542 481.629 217.054 481.737 217.491 481.95C217.917 482.154 218.269 482.426 218.546 482.768L218.547 481.36L219.923 481.361L219.92 484.737L212.112 484.728L212.112 484.232C212.23 483.88 212.39 483.545 212.593 483.225C212.786 482.905 213.037 482.628 213.346 482.394C213.645 482.159 214.013 481.973 214.451 481.835C214.878 481.697 215.379 481.628 215.955 481.629ZM215.954 482.637C215.623 482.636 215.341 482.668 215.106 482.732C214.861 482.785 214.652 482.87 214.482 482.987C214.311 483.094 214.167 483.221 214.049 483.371C213.921 483.52 213.814 483.68 213.729 483.85L218.145 483.855C217.964 483.503 217.708 483.215 217.378 482.99C217.047 482.755 216.573 482.637 215.954 482.637ZM229.742 486.028L229.736 491.66C229.735 492.343 229.654 492.924 229.494 493.404C229.333 493.873 229.088 494.257 228.757 494.555C228.436 494.843 228.031 495.056 227.54 495.194C227.049 495.321 226.478 495.385 225.828 495.384C224.526 495.382 223.54 495.152 222.868 494.693C222.208 494.233 221.878 493.55 221.879 492.643C221.879 492.089 222.04 491.641 222.36 491.3C222.691 490.948 223.129 490.693 223.673 490.533C223.364 490.437 223.076 490.303 222.81 490.132C222.554 489.962 222.335 489.748 222.154 489.492C221.984 489.236 221.856 488.947 221.771 488.627C221.686 488.297 221.671 487.934 221.724 487.539C221.778 487.123 221.981 486.766 222.334 486.468C222.697 486.159 223.134 486.005 223.646 486.005C224.158 486.006 224.569 486.166 224.878 486.487C225.197 486.797 225.357 487.181 225.356 487.639C225.356 488.098 225.206 488.466 224.907 488.743C224.608 489.02 224.24 489.158 223.803 489.158C223.653 489.157 223.536 489.136 223.451 489.093C223.547 489.253 223.68 489.387 223.85 489.494C224.031 489.601 224.223 489.686 224.426 489.75C224.629 489.815 224.831 489.857 225.034 489.879C225.247 489.901 225.439 489.911 225.61 489.912L226.234 489.912L226.233 491.064L225.689 491.064C225.443 491.063 225.192 491.09 224.936 491.143C224.691 491.185 224.462 491.26 224.248 491.366C224.035 491.473 223.859 491.616 223.72 491.798C223.591 491.979 223.527 492.203 223.527 492.469C223.527 492.693 223.558 492.907 223.622 493.109C223.686 493.301 223.798 493.472 223.958 493.622C224.128 493.761 224.363 493.873 224.661 493.959C224.96 494.044 225.349 494.087 225.829 494.088C226.33 494.088 226.736 494.025 227.045 493.897C227.355 493.759 227.59 493.562 227.75 493.306C227.921 493.05 228.033 492.741 228.087 492.378C228.151 492.005 228.184 491.579 228.184 491.099L228.19 486.027L229.742 486.028ZM222.924 487.669C222.924 487.871 222.993 488.042 223.132 488.181C223.281 488.32 223.452 488.389 223.644 488.389C223.825 488.39 223.985 488.32 224.124 488.182C224.273 488.043 224.348 487.873 224.348 487.67C224.349 487.478 224.274 487.313 224.125 487.174C223.986 487.024 223.826 486.95 223.645 486.949C223.453 486.949 223.282 487.024 223.133 487.173C222.994 487.311 222.925 487.477 222.924 487.669ZM238.314 493.67C238.313 494.129 238.153 494.523 237.832 494.854C237.523 495.173 237.096 495.333 236.552 495.332C236.008 495.331 235.571 495.171 235.24 494.851C234.921 494.52 234.761 494.125 234.762 493.666C234.762 493.453 234.799 493.25 234.874 493.058C234.96 492.866 235.072 492.701 235.211 492.563C235.35 492.424 235.515 492.318 235.707 492.243C235.899 492.158 236.107 492.116 236.331 492.116C236.481 492.116 236.619 492.137 236.747 492.18L236.75 489.7C236.751 489.348 236.724 489.023 236.671 488.724C236.618 488.425 236.512 488.169 236.352 487.956C236.203 487.742 235.985 487.577 235.697 487.459C235.42 487.341 235.046 487.282 234.577 487.282C234.086 487.281 233.681 487.409 233.36 487.664C233.051 487.909 232.821 488.266 232.671 488.736L231.119 488.734C231.28 487.881 231.66 487.209 232.258 486.719C232.855 486.219 233.629 485.969 234.578 485.97C235.784 485.971 236.706 486.25 237.345 486.805C237.995 487.36 238.32 488.225 238.319 489.398L238.314 493.67ZM235.818 493.667C235.817 493.849 235.887 494.014 236.025 494.163C236.164 494.302 236.324 494.372 236.505 494.372C236.697 494.372 236.862 494.303 237.001 494.165C237.151 494.015 237.225 493.85 237.226 493.669C237.226 493.477 237.151 493.311 237.002 493.173C236.864 493.034 236.698 492.964 236.506 492.964C236.325 492.964 236.165 493.033 236.026 493.171C235.887 493.31 235.818 493.475 235.818 493.667ZM245.896 486.047L247.48 486.048L247.473 492.192C247.591 492.15 247.724 492.129 247.873 492.129C248.097 492.129 248.305 492.172 248.497 492.258C248.689 492.332 248.854 492.439 248.993 492.578C249.131 492.717 249.238 492.882 249.312 493.075C249.397 493.267 249.44 493.469 249.44 493.683C249.439 494.141 249.273 494.536 248.942 494.866C248.622 495.186 248.19 495.345 247.646 495.345C247.102 495.344 246.67 495.184 246.35 494.863C246.041 494.532 245.887 494.137 245.888 493.679L245.896 486.047ZM248.384 493.681C248.384 493.489 248.315 493.324 248.176 493.185C248.038 493.046 247.878 492.977 247.696 492.977C247.504 492.976 247.334 493.046 247.184 493.184C247.045 493.323 246.976 493.488 246.976 493.68C246.975 493.861 247.045 494.027 247.183 494.176C247.332 494.315 247.503 494.384 247.695 494.385C247.876 494.385 248.036 494.316 248.175 494.177C248.314 494.028 248.383 493.863 248.384 493.681ZM250.867 489.796C250.868 488.442 251.221 487.471 251.926 486.885C252.641 486.289 253.65 485.991 254.951 485.993C256.263 485.994 257.276 486.294 257.99 486.892C258.704 487.48 259.06 488.451 259.059 489.806L259.052 495.294L257.468 495.292L257.475 489.884C257.475 489.489 257.433 489.132 257.348 488.812C257.263 488.492 257.119 488.219 256.917 487.995C256.725 487.771 256.469 487.6 256.149 487.482C255.829 487.365 255.43 487.305 254.95 487.305C254.48 487.304 254.085 487.363 253.765 487.48C253.445 487.597 253.189 487.772 252.997 488.007C252.804 488.23 252.665 488.508 252.58 488.838C252.494 489.158 252.451 489.526 252.451 489.942L252.446 493.702C252.756 493.425 253.071 493.121 253.391 492.791C253.722 492.461 254.005 492.173 254.24 491.928C253.952 491.81 253.723 491.629 253.553 491.383C253.383 491.127 253.298 490.834 253.298 490.503C253.298 490.076 253.448 489.714 253.747 489.416C254.046 489.107 254.446 488.952 254.948 488.953C255.449 488.953 255.849 489.109 256.147 489.418C256.456 489.717 256.61 490.08 256.61 490.507C256.61 490.827 256.454 491.205 256.145 491.642C255.845 492.069 255.472 492.505 255.023 492.953C254.575 493.39 254.099 493.816 253.598 494.231C253.107 494.647 252.669 494.998 252.284 495.286L250.86 495.284L250.867 489.796ZM254.274 490.504C254.274 490.685 254.338 490.846 254.465 490.984C254.604 491.113 254.764 491.177 254.945 491.177C255.126 491.177 255.281 491.113 255.409 490.985C255.548 490.847 255.618 490.687 255.618 490.506C255.618 490.324 255.549 490.17 255.41 490.041C255.283 489.913 255.128 489.849 254.947 489.849C254.765 489.849 254.605 489.913 254.466 490.04C254.338 490.168 254.274 490.323 254.274 490.504ZM255.127 481.673C255.714 481.674 256.226 481.781 256.663 481.995C257.089 482.198 257.441 482.47 257.718 482.812L257.719 481.404L259.095 481.406L259.092 484.782L251.284 484.773L251.284 484.277C251.402 483.925 251.562 483.589 251.765 483.269C251.958 482.95 252.209 482.672 252.518 482.438C252.817 482.204 253.185 482.018 253.623 481.879C254.05 481.741 254.551 481.672 255.127 481.673ZM255.126 482.681C254.795 482.681 254.513 482.712 254.278 482.776C254.032 482.829 253.824 482.914 253.653 483.031C253.483 483.138 253.339 483.266 253.221 483.415C253.093 483.564 252.986 483.724 252.901 483.895L257.317 483.9C257.136 483.547 256.88 483.259 256.549 483.035C256.219 482.8 255.745 482.682 255.126 482.681ZM260.506 479.455L259.066 479.454L259.064 480.574L257.752 480.572L257.754 479.452L256.314 479.45L256.315 478.506L257.755 478.508L257.756 477.372L259.068 477.374L259.067 478.51L260.507 478.511L260.506 479.455ZM268.914 486.073L268.908 491.705C268.907 492.387 268.826 492.969 268.666 493.448C268.505 493.918 268.259 494.301 267.928 494.6C267.608 494.887 267.202 495.1 266.712 495.238C266.221 495.366 265.65 495.429 264.999 495.428C263.698 495.427 262.712 495.196 262.04 494.737C261.379 494.278 261.05 493.594 261.051 492.688C261.051 492.133 261.212 491.685 261.532 491.344C261.863 490.993 262.301 490.737 262.845 490.578C262.536 490.481 262.248 490.348 261.981 490.177C261.726 490.006 261.507 489.792 261.326 489.536C261.156 489.28 261.028 488.992 260.943 488.672C260.858 488.341 260.843 487.978 260.896 487.584C260.95 487.168 261.153 486.811 261.506 486.512C261.869 486.203 262.306 486.049 262.818 486.05C263.33 486.05 263.741 486.211 264.05 486.531C264.369 486.841 264.529 487.225 264.528 487.684C264.528 488.142 264.378 488.51 264.079 488.787C263.78 489.064 263.412 489.202 262.975 489.202C262.825 489.202 262.708 489.18 262.623 489.138C262.718 489.298 262.852 489.431 263.022 489.538C263.203 489.645 263.395 489.73 263.598 489.795C263.8 489.859 264.003 489.902 264.206 489.923C264.419 489.945 264.611 489.956 264.782 489.956L265.406 489.957L265.404 491.109L264.86 491.108C264.615 491.108 264.364 491.134 264.108 491.187C263.863 491.23 263.633 491.304 263.42 491.41C263.207 491.517 263.03 491.661 262.892 491.842C262.763 492.023 262.699 492.247 262.699 492.514C262.699 492.738 262.73 492.951 262.794 493.154C262.858 493.346 262.97 493.517 263.129 493.666C263.3 493.805 263.535 493.917 263.833 494.003C264.132 494.089 264.521 494.132 265.001 494.132C265.502 494.133 265.908 494.069 266.217 493.942C266.527 493.803 266.762 493.606 266.922 493.35C267.093 493.095 267.205 492.785 267.259 492.423C267.323 492.05 267.356 491.623 267.356 491.143L267.362 486.071L268.914 486.073ZM262.096 487.713C262.096 487.916 262.165 488.086 262.304 488.225C262.453 488.364 262.623 488.434 262.815 488.434C262.997 488.434 263.157 488.365 263.296 488.226C263.445 488.088 263.52 487.917 263.52 487.715C263.52 487.523 263.446 487.357 263.297 487.218C263.158 487.069 262.998 486.994 262.817 486.994C262.625 486.994 262.454 487.068 262.305 487.217C262.166 487.356 262.096 487.521 262.096 487.713ZM277.486 493.714C277.485 494.173 277.325 494.568 277.004 494.898C276.694 495.218 276.268 495.377 275.724 495.376C275.18 495.376 274.742 495.215 274.412 494.895C274.093 494.564 273.933 494.169 273.934 493.71C273.934 493.497 273.971 493.294 274.046 493.103C274.132 492.911 274.244 492.745 274.383 492.607C274.522 492.468 274.687 492.362 274.879 492.287C275.071 492.202 275.279 492.16 275.503 492.16C275.653 492.16 275.791 492.182 275.919 492.225L275.922 489.745C275.922 489.393 275.896 489.067 275.843 488.769C275.79 488.47 275.684 488.214 275.524 488C275.375 487.787 275.156 487.621 274.869 487.503C274.591 487.386 274.218 487.327 273.749 487.326C273.258 487.326 272.853 487.453 272.532 487.709C272.223 487.954 271.993 488.311 271.843 488.78L270.291 488.778C270.452 487.925 270.832 487.254 271.429 486.764C272.027 486.263 272.801 486.013 273.75 486.014C274.956 486.016 275.878 486.294 276.517 486.849C277.167 487.405 277.492 488.269 277.49 489.442L277.486 493.714ZM274.99 493.712C274.989 493.893 275.058 494.058 275.197 494.208C275.335 494.347 275.495 494.416 275.677 494.416C275.869 494.417 276.034 494.347 276.173 494.209C276.322 494.06 276.397 493.895 276.398 493.713C276.398 493.521 276.323 493.356 276.174 493.217C276.036 493.078 275.87 493.009 275.678 493.008C275.497 493.008 275.337 493.077 275.198 493.216C275.059 493.354 274.99 493.52 274.99 493.712ZM282.593 492.184C282.913 492.281 283.232 492.398 283.552 492.537C283.872 492.666 284.181 492.81 284.48 492.97C284.789 493.12 285.082 493.28 285.359 493.451C285.647 493.612 285.914 493.767 286.159 493.916L286.168 486.092L287.736 486.094L287.725 495.326L286.301 495.324C285.779 495.004 285.203 494.673 284.574 494.33C283.956 493.978 283.311 493.694 282.639 493.48C282.682 493.555 282.703 493.646 282.703 493.752C282.703 493.966 282.66 494.174 282.574 494.376C282.489 494.568 282.371 494.744 282.222 494.904C282.072 495.053 281.885 495.175 281.661 495.271C281.448 495.356 281.213 495.399 280.957 495.398C280.669 495.398 280.408 495.355 280.173 495.269C279.949 495.173 279.757 495.045 279.598 494.885C279.438 494.725 279.31 494.543 279.214 494.34C279.129 494.127 279.087 493.898 279.087 493.652C279.087 493.215 279.221 492.858 279.488 492.581C279.755 492.304 280.065 492.128 280.417 492.054C280.62 491.969 280.822 491.926 281.025 491.926L281.028 489.174C280.847 489.238 280.649 489.254 280.436 489.222C280.031 489.168 279.7 489.002 279.445 488.725C279.189 488.436 279.061 488.09 279.062 487.684C279.062 487.226 279.223 486.836 279.543 486.517C279.863 486.186 280.296 486.022 280.84 486.022C281.384 486.023 281.81 486.189 282.119 486.52C282.428 486.84 282.588 487.23 282.598 487.688L282.593 492.184ZM280.127 493.621C280.127 493.835 280.207 494.022 280.366 494.182C280.526 494.331 280.713 494.406 280.926 494.406C281.139 494.407 281.326 494.332 281.486 494.183C281.647 494.023 281.727 493.837 281.727 493.623C281.727 493.41 281.647 493.223 281.488 493.063C281.328 492.892 281.141 492.807 280.928 492.806C280.715 492.806 280.528 492.891 280.368 493.062C280.207 493.222 280.127 493.408 280.127 493.621ZM280.102 487.685C280.102 487.877 280.171 488.048 280.309 488.198C280.458 488.336 280.624 488.406 280.805 488.406C280.997 488.406 281.162 488.337 281.301 488.199C281.44 488.05 281.51 487.879 281.51 487.687C281.51 487.506 281.441 487.346 281.302 487.207C281.164 487.068 280.999 486.998 280.807 486.998C280.625 486.998 280.46 487.067 280.31 487.206C280.171 487.344 280.102 487.504 280.102 487.685ZM293.8 495.333L293.807 489.397C293.808 488.8 293.643 488.314 293.313 487.94C292.993 487.556 292.535 487.363 291.937 487.363C291.5 487.362 291.068 487.447 290.641 487.617C290.214 487.788 289.814 488 289.44 488.256L289.248 488.256L289.25 487.072C289.613 486.731 290.05 486.475 290.562 486.305C291.075 486.124 291.608 486.034 292.163 486.035C292.675 486.036 293.128 486.121 293.522 486.293C293.928 486.453 294.269 486.672 294.546 486.95C294.823 487.217 295.036 487.532 295.185 487.894C295.334 488.257 295.408 488.636 295.407 489.031L295.4 495.335L293.8 495.333ZM297.881 486.106L299.465 486.107L299.458 492.251C299.575 492.209 299.708 492.188 299.858 492.188C300.082 492.188 300.29 492.231 300.482 492.316C300.674 492.391 300.839 492.498 300.977 492.637C301.116 492.776 301.222 492.941 301.297 493.133C301.382 493.326 301.424 493.528 301.424 493.742C301.423 494.2 301.258 494.595 300.927 494.925C300.606 495.245 300.174 495.404 299.63 495.404C299.086 495.403 298.654 495.242 298.335 494.922C298.026 494.591 297.871 494.196 297.872 493.738L297.881 486.106ZM304.105 486.113L304.098 492.257C304.215 492.214 304.348 492.193 304.498 492.193C304.722 492.193 304.93 492.236 305.122 492.322C305.314 492.397 305.479 492.503 305.617 492.642C305.756 492.781 305.862 492.947 305.937 493.139C306.022 493.331 306.064 493.533 306.064 493.747C306.063 494.205 305.898 494.6 305.567 494.93C305.246 495.25 304.814 495.409 304.27 495.409C303.726 495.408 303.294 495.248 302.975 494.927C302.666 494.596 302.511 494.201 302.512 493.743L302.521 486.111L304.105 486.113ZM305.008 493.746C305.008 493.554 304.939 493.388 304.801 493.249C304.662 493.111 304.502 493.041 304.321 493.041C304.129 493.041 303.958 493.11 303.809 493.248C303.67 493.387 303.6 493.552 303.6 493.744C303.6 493.925 303.669 494.091 303.807 494.24C303.957 494.379 304.127 494.449 304.319 494.449C304.501 494.449 304.661 494.38 304.799 494.241C304.938 494.092 305.008 493.927 305.008 493.746ZM300.368 493.74C300.368 493.548 300.299 493.383 300.161 493.244C300.022 493.105 299.862 493.036 299.681 493.036C299.489 493.035 299.318 493.105 299.169 493.243C299.03 493.382 298.96 493.547 298.96 493.739C298.96 493.92 299.029 494.086 299.167 494.235C299.317 494.374 299.487 494.443 299.679 494.444C299.861 494.444 300.021 494.375 300.159 494.236C300.298 494.087 300.368 493.922 300.368 493.74ZM307.441 492.132C307.442 491.748 307.511 491.391 307.65 491.061C307.8 490.73 308.008 490.442 308.275 490.197C308.553 489.952 308.889 489.761 309.284 489.622C309.679 489.484 310.127 489.415 310.628 489.416C311.439 489.417 312.084 489.562 312.564 489.85C313.054 490.139 313.395 490.491 313.586 490.907L313.588 489.659C313.578 489.329 313.53 489.025 313.445 488.747C313.36 488.47 313.222 488.23 313.03 488.027C312.849 487.824 312.598 487.669 312.278 487.562C311.969 487.444 311.585 487.385 311.126 487.385C310.604 487.384 310.134 487.511 309.718 487.767C309.302 488.012 309.013 488.363 308.853 488.822L307.317 488.82C307.392 488.394 307.542 488.01 307.766 487.669C308.001 487.328 308.284 487.04 308.615 486.806C308.957 486.561 309.341 486.375 309.768 486.247C310.195 486.119 310.648 486.056 311.128 486.057C311.747 486.057 312.301 486.127 312.792 486.266C313.293 486.406 313.719 486.619 314.071 486.908C314.423 487.196 314.694 487.559 314.886 487.997C315.077 488.424 315.173 488.93 315.172 489.517L315.165 495.357L313.581 495.355L313.584 493.371C313.584 492.923 313.505 492.529 313.345 492.187C313.196 491.846 312.994 491.563 312.738 491.338C312.493 491.103 312.205 490.927 311.875 490.809C311.555 490.681 311.219 490.617 310.867 490.616C310.291 490.616 309.843 490.738 309.522 490.983C309.213 491.228 309.058 491.59 309.057 492.07L309.057 492.246C309.164 492.214 309.286 492.198 309.425 492.199C309.649 492.199 309.857 492.242 310.049 492.327C310.241 492.402 310.406 492.509 310.545 492.648C310.683 492.787 310.789 492.952 310.864 493.144C310.949 493.336 310.992 493.539 310.991 493.752C310.991 494.211 310.825 494.606 310.494 494.936C310.174 495.255 309.741 495.415 309.197 495.414C308.653 495.414 308.222 495.253 307.902 494.933C307.593 494.602 307.439 494.207 307.439 493.748L307.441 492.132ZM309.935 493.751C309.935 493.559 309.866 493.394 309.728 493.255C309.589 493.116 309.429 493.047 309.248 493.046C309.056 493.046 308.885 493.115 308.736 493.254C308.597 493.392 308.527 493.558 308.527 493.75C308.527 493.931 308.596 494.096 308.735 494.246C308.884 494.385 309.054 494.454 309.246 494.454C309.428 494.455 309.588 494.385 309.727 494.247C309.866 494.098 309.935 493.933 309.935 493.751ZM309.749 482.215C309.749 481.81 309.893 481.468 310.182 481.191C310.459 480.904 310.838 480.76 311.318 480.761C311.798 480.761 312.182 480.906 312.47 481.194C312.747 481.472 312.885 481.813 312.885 482.219C312.884 482.592 312.804 482.928 312.643 483.226C312.483 483.514 312.275 483.733 312.019 483.882C312.381 483.839 312.728 483.77 313.059 483.675C313.379 483.568 313.667 483.419 313.923 483.228C314.18 483.025 314.393 482.775 314.564 482.476C314.725 482.167 314.816 481.794 314.838 481.357L316.102 481.358C316.09 481.86 315.994 482.323 315.812 482.75C315.619 483.176 315.331 483.544 314.947 483.853C314.562 484.162 314.077 484.407 313.49 484.587C312.892 484.757 312.194 484.842 311.394 484.841C310.935 484.84 310.482 484.808 310.034 484.743L310.035 483.959C310.301 483.97 310.552 483.944 310.787 483.88C311.021 483.816 311.214 483.699 311.363 483.529C311.32 483.55 311.278 483.566 311.235 483.577C311.192 483.577 311.16 483.577 311.139 483.577C310.734 483.576 310.403 483.442 310.147 483.175C309.881 482.908 309.748 482.588 309.749 482.215ZM310.661 482.216C310.66 482.397 310.73 482.552 310.868 482.68C310.996 482.808 311.151 482.873 311.332 482.873C311.503 482.873 311.652 482.809 311.78 482.681C311.908 482.553 311.972 482.399 311.973 482.218C311.973 482.036 311.914 481.881 311.797 481.753C311.669 481.625 311.515 481.561 311.333 481.561C311.152 481.561 310.997 481.624 310.869 481.752C310.73 481.88 310.661 482.035 310.661 482.216ZM323.736 493.767C323.735 494.226 323.575 494.62 323.254 494.95C322.944 495.27 322.518 495.429 321.974 495.429C321.43 495.428 320.992 495.268 320.662 494.947C320.343 494.616 320.183 494.221 320.184 493.763C320.184 493.549 320.221 493.347 320.296 493.155C320.382 492.963 320.494 492.798 320.633 492.659C320.772 492.521 320.937 492.414 321.129 492.34C321.321 492.255 321.529 492.212 321.753 492.213C321.903 492.213 322.041 492.234 322.169 492.277L322.172 489.797C322.172 489.445 322.146 489.12 322.093 488.821C322.04 488.522 321.934 488.266 321.774 488.053C321.625 487.839 321.406 487.674 321.119 487.556C320.841 487.438 320.468 487.379 319.999 487.379C319.508 487.378 319.103 487.506 318.782 487.761C318.473 488.006 318.243 488.363 318.093 488.832L316.541 488.831C316.702 487.978 317.081 487.306 317.679 486.816C318.277 486.315 319.051 486.066 320 486.067C321.206 486.068 322.128 486.346 322.767 486.902C323.417 487.457 323.742 488.322 323.74 489.495L323.736 493.767ZM321.24 493.764C321.239 493.945 321.308 494.111 321.447 494.26C321.585 494.399 321.745 494.469 321.927 494.469C322.119 494.469 322.284 494.4 322.423 494.261C322.572 494.112 322.647 493.947 322.648 493.766C322.648 493.574 322.573 493.408 322.424 493.269C322.286 493.131 322.12 493.061 321.928 493.061C321.747 493.061 321.587 493.13 321.448 493.268C321.309 493.407 321.24 493.572 321.24 493.764Z" fill="black" fill-opacity="0.65"/>
<defs>
<linearGradient id="paint0_linear" x1="239.5" y1="308.244" x2="239.5" y2="169.492" gradientUnits="userSpaceOnUse">
<stop stop-color="#808080" stop-opacity="0.25"/>
<stop offset="0.54" stop-color="#808080" stop-opacity="0.12"/>
<stop offset="1" stop-color="#808080" stop-opacity="0.1"/>
</linearGradient>
<linearGradient id="paint1_linear" x1="20178.9" y1="-117107" x2="13822.2" y2="-126145" gradientUnits="userSpaceOnUse">
<stop stop-color="#808080" stop-opacity="0.25"/>
<stop offset="0.54" stop-color="#808080" stop-opacity="0.12"/>
<stop offset="1" stop-color="#808080" stop-opacity="0.1"/>
</linearGradient>
<linearGradient id="paint2_linear" x1="3048.59" y1="-16868.9" x2="2935.14" y2="-17030.2" gradientUnits="userSpaceOnUse">
<stop stop-color="#808080" stop-opacity="0.25"/>
<stop offset="0.54" stop-color="#808080" stop-opacity="0.12"/>
<stop offset="1" stop-color="#808080" stop-opacity="0.1"/>
</linearGradient>
<linearGradient id="paint3_linear" x1="3540.41" y1="-16599.7" x2="3426.92" y2="-16761" gradientUnits="userSpaceOnUse">
<stop stop-color="#808080" stop-opacity="0.25"/>
<stop offset="0.54" stop-color="#808080" stop-opacity="0.12"/>
<stop offset="1" stop-color="#808080" stop-opacity="0.1"/>
</linearGradient>
<linearGradient id="paint4_linear" x1="2792.31" y1="-16302.4" x2="2678.83" y2="-16463.8" gradientUnits="userSpaceOnUse">
<stop stop-color="#808080" stop-opacity="0.25"/>
<stop offset="0.54" stop-color="#808080" stop-opacity="0.12"/>
<stop offset="1" stop-color="#808080" stop-opacity="0.1"/>
</linearGradient>
<linearGradient id="paint5_linear" x1="3256.7" y1="-16013.2" x2="3143.21" y2="-16174.6" gradientUnits="userSpaceOnUse">
<stop stop-color="#808080" stop-opacity="0.25"/>
<stop offset="0.54" stop-color="#808080" stop-opacity="0.12"/>
<stop offset="1" stop-color="#808080" stop-opacity="0.1"/>
</linearGradient>
<linearGradient id="paint6_linear" x1="14785.8" y1="12474.9" x2="14785.8" y2="7503.75" gradientUnits="userSpaceOnUse">
<stop stop-color="#808080" stop-opacity="0.25"/>
<stop offset="0.54" stop-color="#808080" stop-opacity="0.12"/>
<stop offset="1" stop-color="#808080" stop-opacity="0.1"/>
</linearGradient>
<linearGradient id="paint7_linear" x1="28177" y1="26411.2" x2="28177" y2="11773.9" gradientUnits="userSpaceOnUse">
<stop stop-color="#808080" stop-opacity="0.25"/>
<stop offset="0.54" stop-color="#808080" stop-opacity="0.12"/>
<stop offset="1" stop-color="#808080" stop-opacity="0.1"/>
</linearGradient>
<linearGradient id="paint8_linear" x1="258.072" y1="210.611" x2="258.072" y2="207.94" gradientUnits="userSpaceOnUse">
<stop stop-color="white"/>
<stop offset="1"/>
</linearGradient>
<linearGradient id="paint9_linear" x1="99203.8" y1="112751" x2="99203.8" y2="9899" gradientUnits="userSpaceOnUse">
<stop stop-color="#808080" stop-opacity="0.25"/>
<stop offset="0.54" stop-color="#808080" stop-opacity="0.12"/>
<stop offset="1" stop-color="#808080" stop-opacity="0.1"/>
</linearGradient>
<linearGradient id="paint10_linear" x1="25821.5" y1="-16668.2" x2="25061.2" y2="-18935" gradientUnits="userSpaceOnUse">
<stop stop-color="#808080" stop-opacity="0.25"/>
<stop offset="0.54" stop-color="#808080" stop-opacity="0.12"/>
<stop offset="1" stop-color="#808080" stop-opacity="0.1"/>
</linearGradient>
<linearGradient id="paint11_linear" x1="41214.2" y1="-29478.2" x2="38718.8" y2="-36919.1" gradientUnits="userSpaceOnUse">
<stop stop-color="#808080" stop-opacity="0.25"/>
<stop offset="0.54" stop-color="#808080" stop-opacity="0.12"/>
<stop offset="1" stop-color="#808080" stop-opacity="0.1"/>
</linearGradient>
<clipPath id="clip0">
<rect width="256" height="256" fill="white" transform="translate(111.5 120)"/>
</clipPath>
</defs>
</svg>
