<svg width="24" height="24" viewBox="0 0 24 24" fill="none" xmlns="http://www.w3.org/2000/svg">
<path fill-rule="evenodd" clip-rule="evenodd" d="M11.3888 10.0964C10.4203 9.52344 9.19707 10.2227 9.195 11.3456V15.651C9.195 16.7772 10.4207 17.4733 11.3884 16.9018L15.0277 14.7496C15.9787 14.1872 15.9787 12.8108 15.0278 12.2484L11.3888 10.0964ZM14.1956 13.499L10.695 15.5692V11.4288L14.1956 13.499Z" fill="#323232"/>
<path fill-rule="evenodd" clip-rule="evenodd" d="M4.032 5.42509V5C4.032 3.48079 5.26278 2.25 6.782 2.25H17.217C18.7362 2.25 19.967 3.48079 19.967 5V5.42606C21.0068 5.81897 21.75 6.82577 21.75 8V19C21.75 20.5192 20.5192 21.75 19 21.75H5C3.48579 21.75 2.25 20.5142 2.25 19V8C2.25 6.8215 2.99063 5.81657 4.032 5.42509ZM5.532 5C5.532 4.30921 6.09121 3.75 6.782 3.75H17.217C17.9078 3.75 18.467 4.30921 18.467 5V5.25H5.532V5ZM5 6.75C4.30921 6.75 3.75 7.30921 3.75 8V19C3.75 19.6858 4.31421 20.25 5 20.25H19C19.6908 20.25 20.25 19.6908 20.25 19V8C20.25 7.31421 19.6858 6.75 19 6.75H5Z" fill="#323232"/>
</svg>
