<svg width="24" height="24" viewBox="0 0 24 24" fill="none" xmlns="http://www.w3.org/2000/svg">
<path d="M21.1667 12C21.1667 17.0626 17.0626 21.1666 12 21.1666C6.93743 21.1666 2.83337 17.0626 2.83337 12C2.83337 6.93737 6.93743 2.83331 12 2.83331C17.0626 2.83331 21.1667 6.93737 21.1667 12Z" fill="#FFC53D"/>
<path fill-rule="evenodd" clip-rule="evenodd" d="M12 20.9583C16.9476 20.9583 20.9584 16.9475 20.9584 12C20.9584 7.05243 16.9476 3.04165 12 3.04165C7.05249 3.04165 3.04171 7.05243 3.04171 12C3.04171 16.9475 7.05249 20.9583 12 20.9583ZM12 21.1666C17.0626 21.1666 21.1667 17.0626 21.1667 12C21.1667 6.93737 17.0626 2.83331 12 2.83331C6.93743 2.83331 2.83337 6.93737 2.83337 12C2.83337 17.0626 6.93743 21.1666 12 21.1666Z" fill="#FFDDA1"/>
<path d="M12 20.9583C16.9476 20.9583 20.9584 16.9475 20.9584 12H21.1667C21.1667 17.0626 17.0626 21.1666 12 21.1666C6.93743 21.1666 2.83337 17.0626 2.83337 12H3.04171C3.04171 16.9475 7.05249 20.9583 12 20.9583Z" fill="#FAAD14"/>
<path d="M19.5 12C19.5 16.1421 16.1421 19.5 12 19.5C7.85786 19.5 4.5 16.1421 4.5 12C4.5 7.85783 7.85786 4.49997 12 4.49997C16.1421 4.49997 19.5 7.85783 19.5 12Z" fill="#F1BB4F"/>
<path fill-rule="evenodd" clip-rule="evenodd" d="M12 18.6666C15.6819 18.6666 18.6667 15.6819 18.6667 12C18.6667 8.31807 15.6819 5.3333 12 5.3333C8.3181 5.3333 5.33333 8.31807 5.33333 12C5.33333 15.6819 8.3181 18.6666 12 18.6666ZM12 19.5C16.1421 19.5 19.5 16.1421 19.5 12C19.5 7.85783 16.1421 4.49997 12 4.49997C7.85786 4.49997 4.5 7.85783 4.5 12C4.5 16.1421 7.85786 19.5 12 19.5Z" fill="#FAAD14"/>
<path d="M12 18.6666C15.6819 18.6666 18.6667 15.6819 18.6667 12H19.5C19.5 16.1421 16.1421 19.5 12 19.5C7.85786 19.5 4.5 16.1421 4.5 12H5.33333C5.33333 15.6819 8.3181 18.6666 12 18.6666Z" fill="#FFD666"/>
<path d="M8.66675 7.49121H10.6232V14.3628H14.3215V15.8421H8.66675V7.49121Z" fill="#94560C"/>
<path d="M14.0073 11.2961C14.1622 11.2961 14.3002 11.2598 14.4212 11.1872C14.5422 11.1097 14.6221 10.9911 14.6608 10.8314H15.7501C15.6968 11.2719 15.5153 11.6059 15.2054 11.8335C14.9005 12.0562 14.4938 12.1675 13.9855 12.1675C13.3804 12.1675 12.9108 12.0053 12.5767 11.681C12.2427 11.3518 12.0757 10.8725 12.0757 10.2432C12.0757 9.61868 12.2427 9.14183 12.5767 8.81264C12.9156 8.4786 13.3828 8.31158 13.9782 8.31158C14.4769 8.31158 14.8835 8.42777 15.1982 8.66014C15.5129 8.89252 15.6968 9.22897 15.7501 9.66951H14.6681C14.6245 9.50491 14.5422 9.38389 14.4212 9.30643C14.3002 9.22413 14.1622 9.18298 14.0073 9.18298C13.7797 9.18298 13.5934 9.27738 13.4481 9.46618C13.3029 9.65015 13.2303 9.90914 13.2303 10.2432C13.2303 10.5772 13.3029 10.8362 13.4481 11.0202C13.5934 11.2041 13.7797 11.2961 14.0073 11.2961Z" fill="#94560C"/>
</svg>
