<svg width="150" height="37" viewBox="0 0 150 37" fill="none" xmlns="http://www.w3.org/2000/svg">
<path d="M48.0206 6.71066H53.8877V24.2072H63.4145V29.1892H48.0206V6.71066Z" fill="#141414"/>
<path d="M80.2066 14.1493C81.724 15.8184 82.4827 18.1065 82.4827 21.0135C82.4827 21.4615 82.4827 21.8047 82.4502 22.0396H70.4052C70.6253 22.9318 71.1331 23.7266 71.8503 24.3012C72.5729 24.8368 73.455 25.113 74.354 25.0851C75.0997 25.0865 75.8376 24.934 76.5216 24.6371C77.2351 24.3238 77.8825 23.8775 78.4292 23.3221L81.4097 26.3062C80.5153 27.3083 79.4029 28.0919 78.1582 28.5967C76.7872 29.1396 75.3226 29.4072 73.8482 29.3843C72.1585 29.4248 70.4845 29.0528 68.971 28.3005C67.6145 27.6171 66.4944 26.5423 65.7556 25.2152C65.0028 23.7939 64.6295 22.2023 64.6718 20.5945C64.6374 18.9585 65.0243 17.3412 65.7954 15.8979C66.5214 14.5617 67.6245 13.4686 68.9674 12.7548C70.4291 11.9967 72.0574 11.6167 73.7037 11.6493C76.5289 11.6493 78.6965 12.4826 80.2066 14.1493ZM76.9552 18.994C76.9756 18.552 76.9079 18.1104 76.7559 17.6948C76.6039 17.2792 76.3708 16.898 76.07 16.5735C75.7684 16.267 75.4058 16.0272 75.0056 15.8698C74.6054 15.7123 74.1767 15.6407 73.747 15.6595C73.3292 15.6492 72.9136 15.7233 72.525 15.8772C72.1365 16.0311 71.7829 16.2618 71.4855 16.5554C70.8417 17.2241 70.4213 18.0762 70.2824 18.994H76.9552Z" fill="#141414"/>
<path d="M93.4473 12.4188C94.4425 11.8722 95.5635 11.5957 96.6988 11.6168V16.8444C96.4117 16.8188 96.1235 16.8079 95.8353 16.8119C94.6698 16.7586 93.5193 17.0913 92.5622 17.7585C92.1536 18.0635 91.8137 18.4512 91.5648 18.8962C91.3158 19.3413 91.1633 19.8337 91.1171 20.3416V29.1892H85.4089V11.848H91.1171V14.7382C91.673 13.7711 92.4776 12.9703 93.4473 12.4188Z" fill="#141414"/>
<path d="M126.876 13.4123C128.01 14.6166 128.578 16.2315 128.578 18.257V29.1892H122.87V19.89C122.921 19.048 122.651 18.2178 122.114 17.567C121.85 17.2824 121.526 17.0591 121.166 16.9124C120.806 16.7658 120.418 16.6995 120.03 16.718C119.574 16.7091 119.121 16.804 118.707 16.9955C118.293 17.187 117.927 17.4701 117.638 17.8235C117.023 18.625 116.711 19.6178 116.757 20.627V29.1892H111.049V19.89C111.096 19.0461 110.821 18.2156 110.279 17.567C110.015 17.282 109.691 17.0584 109.331 16.9117C108.971 16.7651 108.583 16.699 108.195 16.718C107.736 16.7103 107.282 16.8057 106.866 16.997C106.449 17.1884 106.081 17.4708 105.788 17.8235C105.164 18.621 104.847 19.6155 104.892 20.627V29.1892H99.2024V11.848H104.878V14.7021C105.433 13.7427 106.237 12.9512 107.205 12.4116C108.225 11.8701 109.367 11.5989 110.521 11.624C111.802 11.5901 113.062 11.9481 114.134 12.65C115.143 13.3408 115.898 14.3433 116.283 15.5041C116.764 14.3183 117.598 13.3092 118.671 12.6139C119.777 11.9418 121.052 11.6019 122.346 11.6349C124.235 11.6168 125.745 12.2165 126.876 13.4123Z" fill="#141414"/>
<path d="M145.478 12.7548C146.864 13.4514 148.022 14.531 148.813 15.8654C149.622 17.2739 150.032 18.8765 149.998 20.5006C150.035 22.1341 149.625 23.7469 148.813 25.1646C148.022 26.5001 146.865 27.5809 145.478 28.2788C143.922 29.0068 142.225 29.3842 140.507 29.3842C138.789 29.3842 137.092 29.0068 135.536 28.2788C134.156 27.5821 133.008 26.5004 132.23 25.1646C131.427 23.7436 131.023 22.1322 131.06 20.5006C131.026 18.8784 131.431 17.2773 132.23 15.8654C133.012 14.5286 134.165 13.4479 135.55 12.7548C137.106 12.0268 138.803 11.6494 140.521 11.6494C142.239 11.6494 143.936 12.0268 145.493 12.7548H145.478ZM137.812 17.4514C137.099 18.3269 136.734 19.4342 136.786 20.562C136.731 21.7001 137.096 22.8188 137.812 23.7051C138.157 24.079 138.576 24.3773 139.043 24.5814C139.509 24.7855 140.012 24.8908 140.521 24.8908C141.03 24.8908 141.534 24.7855 142 24.5814C142.467 24.3773 142.886 24.079 143.231 23.7051C143.949 22.8196 144.314 21.7003 144.257 20.562C144.309 19.4318 143.938 18.3228 143.217 17.4514C142.882 17.0645 142.464 16.7571 141.996 16.5515C141.527 16.346 141.019 16.2473 140.507 16.2628C139.997 16.2458 139.49 16.3442 139.023 16.5506C138.556 16.757 138.142 17.0662 137.812 17.455V17.4514Z" fill="#141414"/>
<path d="M11.7054 5.87974V24.3915H5.8527C5.08446 24.391 4.32366 24.542 3.61381 24.8357C2.90396 25.1295 2.25898 25.5603 1.71575 26.1035C1.17252 26.6468 0.741701 27.2918 0.447927 28.0016C0.154154 28.7115 0.00318827 29.4723 0.00366323 30.2405V5.87974C0.0415999 4.35317 0.674677 2.90188 1.76779 1.8356C2.8609 0.769313 4.32747 0.172485 5.85451 0.172485C7.38155 0.172485 8.84812 0.769313 9.94123 1.8356C11.0343 2.90188 11.6674 4.35317 11.7054 5.87974Z" fill="#FC665C"/>
<path d="M36.0914 5.85446V15.6342C36.0914 17.1854 35.4752 18.6732 34.3782 19.7701C33.2813 20.867 31.7936 21.4832 30.2423 21.4832C28.6911 21.4832 27.2034 20.867 26.1065 19.7701C25.0095 18.6732 24.3933 17.1854 24.3933 15.6342V11.7035H30.2423C31.7936 11.7035 33.2813 11.0873 34.3782 9.99036C35.4752 8.89345 36.0914 7.40572 36.0914 5.85446Z" fill="#FC665C"/>
<path d="M36.0914 5.85445C36.0914 7.40571 35.4752 8.89344 34.3782 9.99035C33.2813 11.0873 31.7936 11.7035 30.2423 11.7035H24.3933V5.85445C24.3933 4.30286 25.0094 2.81476 26.1062 1.71728C27.203 0.619798 28.6908 0.00275831 30.2423 0.00180054V0.00180054C30.7845 0.00258971 31.3241 0.0767211 31.8464 0.222178L32.1174 0.308884L32.3883 0.406428L32.6521 0.518423C32.7785 0.576227 32.9049 0.641257 33.0133 0.709899L33.259 0.847184C33.3782 0.923051 33.4974 0.998919 33.6203 1.08201C33.6979 1.13454 33.7727 1.19122 33.8443 1.25181C34.5446 1.79718 35.1112 2.49534 35.5006 3.29301C35.8901 4.09069 36.0921 4.96679 36.0914 5.85445Z" fill="#E24639"/>
<path d="M30.2423 0.00180649C28.6907 0.00276427 27.203 0.619804 26.1062 1.71729C25.0094 2.81477 24.3932 4.30287 24.3932 5.85446V11.7035H20.4662C19.6856 11.7229 18.909 11.5859 18.1822 11.3006C17.4554 11.0153 16.793 10.5874 16.2341 10.0422C15.6751 9.49697 15.2309 8.84542 14.9277 8.12591C14.6244 7.4064 14.4681 6.63347 14.4681 5.85265C14.4681 5.07183 14.6244 4.29891 14.9277 3.5794C15.2309 2.85988 15.6751 2.20833 16.2341 1.66311C16.793 1.11789 17.4554 0.690025 18.1822 0.404712C18.909 0.1194 19.6856 -0.0175916 20.4662 0.00180649H30.2423Z" fill="#FF9180"/>
<path d="M11.7053 24.3915V30.2405C11.706 31.3982 11.3634 32.5301 10.7207 33.4931C10.078 34.456 9.16424 35.2067 8.09487 35.6502C7.0255 36.0938 5.84861 36.2102 4.71307 35.9848C3.57753 35.7593 2.53435 35.2022 1.71548 34.3839C0.896613 33.5655 0.338843 32.5227 0.112724 31.3873C-0.113395 30.2519 0.00229635 29.0749 0.445163 28.0053C0.88803 26.9356 1.63818 26.0213 2.60072 25.3781C3.56326 24.7348 4.69495 24.3915 5.85265 24.3915H11.7053Z" fill="#E24639"/>
<path d="M36.0914 30.2405C36.0918 31.0089 35.9409 31.7699 35.6472 32.48C35.3534 33.19 34.9227 33.8352 34.3795 34.3787C33.8363 34.9223 33.1914 35.3534 32.4815 35.6476C31.7716 35.9418 31.0107 36.0932 30.2423 36.0932H5.85266C7.40429 36.0913 8.89183 35.474 9.989 34.3769C11.0862 33.2797 11.7034 31.7921 11.7053 30.2405V24.3915H30.2423C31.7936 24.3915 33.2813 25.0077 34.3782 26.1046C35.4751 27.2015 36.0914 28.6893 36.0914 30.2405Z" fill="#FF9180"/>
</svg>
