<svg width="626" height="143" viewBox="0 0 626 143" fill="none" xmlns="http://www.w3.org/2000/svg">
<path d="M35.018 114.6H79.818V141H0.817969V0.599996H35.018V114.6ZM447.32 28.2C461.186 28.2 472.186 32.4 480.32 40.8C488.586 49.2 492.72 60.8667 492.72 75.8V141H458.72V80.4C458.72 73.2 456.786 67.6667 452.92 63.8C449.186 59.8 443.986 57.8 437.32 57.8C430.653 57.8 425.386 59.8 421.52 63.8C417.786 67.6667 415.92 73.2 415.92 80.4V141H381.92V80.4C381.92 73.2 379.986 67.6667 376.12 63.8C372.386 59.8 367.186 57.8 360.52 57.8C353.853 57.8 348.586 59.8 344.72 63.8C340.986 67.6667 339.12 73.2 339.12 80.4V141H304.92V29.4H339.12V43.4C342.586 38.7333 347.12 35.0667 352.72 32.4C358.32 29.6 364.653 28.2 371.72 28.2C380.12 28.2 387.586 30 394.12 33.6C400.786 37.2 405.986 42.3333 409.72 49C413.586 42.8667 418.853 37.8667 425.52 34C432.186 30.1333 439.453 28.2 447.32 28.2Z" fill="#663474"/>
<path d="M201.33 83.4C201.33 86.6 201.13 89.9333 200.73 93.4H123.33C123.864 100.333 126.064 105.667 129.93 109.4C133.93 113 138.797 114.8 144.53 114.8C153.064 114.8 158.997 111.2 162.33 104H198.73C196.864 111.333 193.464 117.933 188.53 123.8C183.73 129.667 177.664 134.267 170.33 137.6C162.997 140.933 154.797 142.6 145.73 142.6C134.797 142.6 125.064 140.267 116.53 135.6C107.997 130.933 101.33 124.267 96.5305 115.6C91.7305 106.933 89.3305 96.8 89.3305 85.2C89.3305 73.6 91.6638 63.4667 96.3305 54.8C101.13 46.1333 107.797 39.4667 116.33 34.8C124.864 30.1333 134.664 27.8 145.73 27.8C156.53 27.8 166.13 30.0667 174.53 34.6C182.93 39.1333 189.464 45.6 194.13 54C198.93 62.4 201.33 72.2 201.33 83.4ZM166.33 74.4C166.33 68.5333 164.33 63.8667 160.33 60.4C156.33 56.9333 151.33 55.2 145.33 55.2C139.597 55.2 134.73 56.8667 130.73 60.2C126.864 63.5333 124.464 68.2667 123.53 74.4H166.33ZM567.438 142.6C556.505 142.6 546.638 140.267 537.838 135.6C529.172 130.933 522.305 124.267 517.238 115.6C512.305 106.933 509.838 96.8 509.838 85.2C509.838 73.7333 512.372 63.6667 517.438 55C522.505 46.2 529.438 39.4667 538.238 34.8C547.038 30.1333 556.905 27.8 567.838 27.8C578.772 27.8 588.638 30.1333 597.438 34.8C606.238 39.4667 613.172 46.2 618.238 55C623.305 63.6667 625.838 73.7333 625.838 85.2C625.838 96.6667 623.238 106.8 618.038 115.6C612.972 124.267 605.972 130.933 597.038 135.6C588.238 140.267 578.372 142.6 567.438 142.6ZM567.438 113C573.972 113 579.505 110.6 584.038 105.8C588.705 101 591.038 94.1333 591.038 85.2C591.038 76.2667 588.772 69.4 584.238 64.6C579.838 59.8 574.372 57.4 567.838 57.4C561.172 57.4 555.638 59.8 551.238 64.6C546.838 69.2667 544.638 76.1333 544.638 85.2C544.638 94.1333 546.772 101 551.038 105.8C555.438 110.6 560.905 113 567.438 113Z" fill="#D8575D"/>
<path d="M253.573 48C257.573 41.8667 262.573 37.0667 268.573 33.6C274.573 30 281.239 28.2 288.573 28.2V64.4H279.173C270.639 64.4 264.239 66.2667 259.973 70C255.706 73.6 253.573 80 253.573 89.2V141H219.373V29.4H253.573V48Z" fill="#E5C77B"/>
</svg>
