<svg width="38" height="38" viewBox="0 0 38 38" fill="none" xmlns="http://www.w3.org/2000/svg">
<path d="M12.3226 6.18975V25.6775H6.16134C5.3526 25.677 4.55168 25.8359 3.8044 26.1452C3.05712 26.4545 2.37813 26.908 1.80626 27.4799C1.23439 28.0517 0.780859 28.7307 0.471596 29.478C0.162333 30.2253 0.00340743 31.0262 0.00390743 31.8349V6.18975C0.0438444 4.58269 0.710301 3.05488 1.86105 1.93238C3.01179 0.809875 4.55569 0.18158 6.16324 0.18158C7.7708 0.18158 9.31469 0.809875 10.4654 1.93238C11.6162 3.05488 12.2826 4.58269 12.3226 6.18975Z" fill="#FC665C"/>
<path d="M37.9941 6.16315V16.4585C37.9941 18.0916 37.3453 19.6577 36.1906 20.8125C35.0359 21.9672 33.4697 22.6159 31.8366 22.6159C30.2036 22.6159 28.6374 21.9672 27.4827 20.8125C26.3279 19.6577 25.6792 18.0916 25.6792 16.4585V12.3206H31.8366C33.4697 12.3206 35.0359 11.6719 36.1906 10.5171C37.3453 9.36237 37.9941 7.7962 37.9941 6.16315Z" fill="#FC665C"/>
<path d="M37.9941 6.16313C37.9941 7.79618 37.3453 9.36235 36.1906 10.5171C35.0359 11.6718 33.4697 12.3206 31.8366 12.3206H25.6792V6.16313C25.6792 4.52973 26.3278 2.96317 27.4824 1.80782C28.6371 0.652474 30.2032 0.00290036 31.8366 0.00189209V0.00189209C32.4074 0.00272287 32.9754 0.0807629 33.5253 0.233889L33.8105 0.325167L34.0958 0.427854L34.3734 0.545754C34.5065 0.606606 34.6396 0.675064 34.7537 0.747326L35.0123 0.891849C35.1378 0.971716 35.2633 1.05158 35.3927 1.13906C35.4744 1.19436 35.5531 1.25403 35.6285 1.31781C36.3658 1.89193 36.9622 2.6269 37.3721 3.46664C37.7821 4.30637 37.9948 5.22866 37.9941 6.16313Z" fill="#E24639"/>
<path d="M31.8368 0.00190174C30.2034 0.00291002 28.6372 0.652483 27.4826 1.80783C26.328 2.96318 25.6794 4.52974 25.6794 6.16314V12.3206H21.5453C20.7235 12.341 19.906 12.1968 19.1409 11.8964C18.3757 11.5961 17.6784 11.1456 17.09 10.5717C16.5016 9.99771 16.034 9.3118 15.7147 8.55435C15.3954 7.7969 15.231 6.98322 15.231 6.16124C15.231 5.33925 15.3954 4.52557 15.7147 3.76812C16.034 3.01067 16.5016 2.32477 17.09 1.7508C17.6784 1.17683 18.3757 0.726407 19.1409 0.426051C19.906 0.125695 20.7235 -0.0185191 21.5453 0.00190174H31.8368Z" fill="#FF9180"/>
<path d="M12.3225 25.6775V31.835C12.3232 33.0537 11.9625 34.2453 11.286 35.259C10.6094 36.2727 9.64743 37.063 8.52168 37.5299C7.39593 37.9968 6.15699 38.1194 4.96157 37.8821C3.76616 37.6448 2.66798 37.0583 1.80593 36.1968C0.943888 35.3352 0.356709 34.2374 0.118668 33.0422C-0.119373 31.8469 0.00241743 30.6079 0.468635 29.4818C0.934852 28.3558 1.72455 27.3933 2.73784 26.7161C3.75114 26.039 4.9425 25.6775 6.16124 25.6775H12.3225Z" fill="#E24639"/>
<path d="M37.9942 31.835C37.9947 32.6439 37.8358 33.445 37.5266 34.1925C37.2174 34.94 36.7639 35.6192 36.1921 36.1914C35.6202 36.7635 34.9413 37.2174 34.194 37.5271C33.4467 37.8368 32.6457 37.9962 31.8368 37.9962H6.16113C7.79458 37.9942 9.36054 37.3444 10.5156 36.1894C11.6706 35.0344 12.3204 33.4684 12.3224 31.835V25.6775H31.8368C33.4698 25.6775 35.036 26.3262 36.1907 27.481C37.3455 28.6357 37.9942 30.2019 37.9942 31.835Z" fill="#FF9180"/>
</svg>
