<svg width="1440" height="900" viewBox="0 0 1440 900" fill="none" xmlns="http://www.w3.org/2000/svg">
<g clip-path="url(#clip0)">
<rect width="1440" height="900" fill="white"/>
<path d="M800.692 863.02C797.295 840.733 801.965 817.301 813.648 798.024C825.33 778.748 843.935 763.774 865.255 756.49C853.182 764.947 845.813 778.616 840.671 792.437C835.53 806.258 832.156 820.764 825.811 834.075C819.467 847.385 809.465 859.822 795.595 864.802L800.692 863.02Z" fill="#A4A4E0"/>
<path d="M797.356 863.204C796.875 837.446 791.875 811.778 782.656 787.725C779.383 779.184 775.456 770.658 769.073 764.111C762.691 757.564 753.407 753.249 744.408 754.849C755.616 763.244 761.421 777.054 764.69 790.677C767.959 804.3 769.218 818.435 773.823 831.667C778.426 844.897 787.231 857.65 800.409 862.38L797.356 863.204Z" fill="#A4A4E0"/>
<path d="M795.599 864.893C789.192 847.624 782.227 829.92 769.342 816.765C756.457 803.61 736.043 796.081 719.168 803.438C732.833 806.54 745.357 814.459 754.023 825.478C760.38 833.559 764.655 843.14 771.19 851.076C777.727 859.012 787.699 865.403 797.8 863.511L795.599 864.893Z" fill="#D1D1FF"/>
<path d="M793.552 863.713C790.926 844.761 788.3 825.504 791.066 806.571C793.833 787.64 802.777 768.738 818.804 758.306C809.933 767.012 806.972 780.2 806.967 792.634C806.963 805.069 809.478 817.39 809.691 829.822C809.904 842.255 807.437 855.463 799.033 864.622L793.552 863.713Z" fill="#D1D1FF"/>
<path d="M802.419 860.952C808.561 845.289 815.108 829.028 827.617 817.785C835.648 810.567 845.879 805.832 856.576 804.383C849.077 810.373 844.38 819.15 840.485 827.925C836.589 836.7 833.227 845.841 827.588 853.609C821.949 861.378 813.474 867.769 803.888 868.179L802.419 860.952Z" fill="#D1D1FF"/>
<path d="M833.609 908.608H764.625L753.988 855.498H844.245L833.609 908.608Z" fill="white"/>
<path d="M765.095 908.033H833.138L843.544 856.072H754.689L765.095 908.033ZM834.079 909.182H764.154L753.288 854.923H844.945L834.079 909.182Z" fill="#663473"/>
<path d="M898.288 888.986C898.288 888.986 902.069 898.506 898.898 905.708L971.586 906.318L978.293 905.708L984.205 902.042V896.431L982.561 891.793L977.195 888.986H898.288Z" fill="white"/>
<path d="M974.99 907.245H896.459C895.948 907.245 895.533 906.829 895.533 906.317C895.533 905.806 895.948 905.391 896.459 905.391H974.99C979.731 905.391 983.588 901.809 983.588 897.407C983.588 893.005 979.731 889.424 974.99 889.424H896.459C895.948 889.424 895.533 889.009 895.533 888.497C895.533 887.986 895.948 887.57 896.459 887.57H974.99C980.752 887.57 985.439 891.984 985.439 897.407C985.439 902.831 980.752 907.245 974.99 907.245Z" fill="#2F2E41"/>
<path d="M937.895 897.614H899.355C899.242 897.614 899.15 897.521 899.15 897.408C899.15 897.294 899.242 897.202 899.355 897.202H937.895C938.008 897.202 938.101 897.294 938.101 897.408C938.101 897.521 938.008 897.614 937.895 897.614Z" fill="#A4A4E0"/>
<path d="M980.763 897.614H943.321C943.208 897.614 943.116 897.521 943.116 897.408C943.116 897.294 943.208 897.202 943.321 897.202H980.763C980.876 897.202 980.969 897.294 980.969 897.408C980.969 897.521 980.876 897.614 980.763 897.614Z" fill="#A4A4E0"/>
<path d="M983.444 869.492C983.444 869.492 979.664 879.012 982.835 886.213L910.147 886.823L903.439 886.213L897.528 882.547V876.937L899.171 872.299L904.538 869.492H983.444Z" fill="white"/>
<path d="M906.742 887.75H985.274C985.785 887.75 986.2 887.335 986.2 886.823C986.2 886.311 985.785 885.896 985.274 885.896H906.742C902.002 885.896 898.145 882.315 898.145 877.913C898.145 873.511 902.002 869.93 906.742 869.93H985.274C985.785 869.93 986.2 869.515 986.2 869.003C986.2 868.491 985.785 868.076 985.274 868.076H906.742C900.981 868.076 896.293 872.489 896.293 877.913C896.293 883.337 900.981 887.75 906.742 887.75Z" fill="#D9575C"/>
<path d="M982.378 878.119H943.838C943.725 878.119 943.633 878.027 943.633 877.913C943.633 877.799 943.725 877.707 943.838 877.707H982.378C982.491 877.707 982.584 877.799 982.584 877.913C982.584 878.027 982.491 878.119 982.378 878.119Z" fill="#A4A4E0"/>
<path d="M938.411 878.119H900.97C900.856 878.119 900.764 878.027 900.764 877.913C900.764 877.799 900.856 877.707 900.97 877.707H938.411C938.525 877.707 938.617 877.799 938.617 877.913C938.617 878.027 938.525 878.119 938.411 878.119Z" fill="#A4A4E0"/>
<path d="M921.187 881.809H901.976C901.862 881.809 901.77 881.717 901.77 881.603C901.77 881.489 901.862 881.397 901.976 881.397H921.187C921.3 881.397 921.393 881.489 921.393 881.603C921.393 881.717 921.3 881.809 921.187 881.809Z" fill="#A4A4E0"/>
<path d="M982.378 881.809H924.005C923.891 881.809 923.799 881.717 923.799 881.603C923.799 881.489 923.891 881.397 924.005 881.397H982.378C982.491 881.397 982.584 881.489 982.584 881.603C982.584 881.717 982.491 881.809 982.378 881.809Z" fill="#A4A4E0"/>
<path d="M910.562 851.131C910.562 851.131 914.071 859.966 911.128 866.649L978.587 867.216L984.812 866.649L990.299 863.247V858.04L988.774 853.736L983.793 851.131H910.562Z" fill="white"/>
<path d="M981.747 868.076H908.864C908.389 868.076 908.004 867.691 908.004 867.216C908.004 866.741 908.389 866.356 908.864 866.356H981.747C986.146 866.356 989.726 863.032 989.726 858.946C989.726 854.861 986.146 851.538 981.747 851.538H908.864C908.389 851.538 908.004 851.153 908.004 850.678C908.004 850.202 908.389 849.817 908.864 849.817H981.747C987.094 849.817 991.444 853.913 991.444 858.946C991.444 863.98 987.094 868.076 981.747 868.076Z" fill="#2F2E41"/>
<path d="M947.319 859.153H911.552C911.438 859.153 911.346 859.061 911.346 858.947C911.346 858.833 911.438 858.741 911.552 858.741H947.319C947.432 858.741 947.525 858.833 947.525 858.947C947.525 859.061 947.432 859.153 947.319 859.153Z" fill="#A4A4E0"/>
<path d="M987.104 859.153H952.356C952.242 859.153 952.15 859.061 952.15 858.947C952.15 858.833 952.242 858.741 952.356 858.741H987.104C987.217 858.741 987.31 858.833 987.31 858.947C987.31 859.061 987.217 859.153 987.104 859.153Z" fill="#A4A4E0"/>
<path d="M986.17 862.578H968.342C968.228 862.578 968.136 862.486 968.136 862.372C968.136 862.258 968.228 862.166 968.342 862.166H986.17C986.284 862.166 986.376 862.258 986.376 862.372C986.376 862.486 986.284 862.578 986.17 862.578Z" fill="#A4A4E0"/>
<path d="M986.17 855.726H911.552C911.438 855.726 911.346 855.634 911.346 855.52C911.346 855.406 911.438 855.314 911.552 855.314H986.17C986.284 855.314 986.377 855.406 986.377 855.52C986.377 855.634 986.284 855.726 986.17 855.726Z" fill="#A4A4E0"/>
<path d="M985.274 887.956H906.743C900.867 887.956 896.088 883.451 896.088 877.914C896.088 872.376 900.867 867.87 906.743 867.87H985.274C985.898 867.87 986.406 868.378 986.406 869.003C986.406 869.628 985.898 870.136 985.274 870.136C985.16 870.136 985.068 870.044 985.068 869.93C985.068 869.816 985.16 869.724 985.274 869.724C985.671 869.724 985.994 869.401 985.994 869.003C985.994 868.606 985.671 868.282 985.274 868.282H906.743C901.095 868.282 896.499 872.603 896.499 877.914C896.499 883.224 901.095 887.544 906.743 887.544H985.274C985.671 887.544 985.994 887.22 985.994 886.824C985.994 886.426 985.671 886.102 985.274 886.102C985.16 886.102 985.068 886.011 985.068 885.897C985.068 885.783 985.16 885.69 985.274 885.69C985.898 885.69 986.406 886.199 986.406 886.824C986.406 887.448 985.898 887.956 985.274 887.956Z" fill="#21111D"/>
<path d="M981.747 868.282H908.864C908.277 868.282 907.799 867.804 907.799 867.216C907.799 866.628 908.277 866.15 908.864 866.15C908.978 866.15 909.07 866.242 909.07 866.356C909.07 866.47 908.978 866.562 908.864 866.562C908.504 866.562 908.21 866.855 908.21 867.216C908.21 867.577 908.504 867.871 908.864 867.871H981.747C986.981 867.871 991.239 863.867 991.239 858.947C991.239 854.026 986.981 850.023 981.747 850.023H908.864C908.504 850.023 908.21 850.317 908.21 850.678C908.21 851.038 908.504 851.332 908.864 851.332C908.978 851.332 909.07 851.424 909.07 851.538C909.07 851.651 908.978 851.744 908.864 851.744C908.277 851.744 907.799 851.265 907.799 850.678C907.799 850.09 908.277 849.611 908.864 849.611H981.747C987.208 849.611 991.65 853.799 991.65 858.947C991.65 864.094 987.208 868.282 981.747 868.282Z" fill="#21111D"/>
<path d="M974.99 907.451H896.459C895.835 907.451 895.327 906.942 895.327 906.318C895.327 905.693 895.835 905.185 896.459 905.185C896.573 905.185 896.665 905.277 896.665 905.391C896.665 905.505 896.573 905.597 896.459 905.597C896.062 905.597 895.738 905.921 895.738 906.318C895.738 906.715 896.062 907.039 896.459 907.039H974.99C980.639 907.039 985.234 902.718 985.234 897.408C985.234 892.097 980.639 887.776 974.99 887.776H896.459C896.062 887.776 895.738 888.1 895.738 888.498C895.738 888.895 896.062 889.218 896.459 889.218C896.573 889.218 896.665 889.311 896.665 889.425C896.665 889.538 896.573 889.63 896.459 889.63C895.835 889.63 895.327 889.122 895.327 888.498C895.327 887.873 895.835 887.364 896.459 887.364H974.99C980.865 887.364 985.645 891.87 985.645 897.408C985.645 902.945 980.865 907.451 974.99 907.451Z" fill="#21111D"/>
<path d="M920.115 893.715C920.115 893.715 917.642 899.882 919.067 904.421L921.076 901.313C921.076 901.313 922.449 902.961 923.29 904.421C923.29 904.421 924.825 894.283 927.8 893.715H920.115Z" fill="#F75553"/>
<path d="M972.827 874.221C972.827 874.221 975.301 880.388 973.875 884.927L971.866 881.819C971.866 881.819 970.493 883.467 969.652 884.927C969.652 884.927 968.118 874.789 965.143 874.221H972.827Z" fill="#2F2E41"/>
<path d="M923.322 862.372C923.322 862.372 920.849 868.538 922.274 873.077L924.284 869.97C924.284 869.97 925.655 871.617 926.497 873.077C926.497 873.077 928.031 862.939 931.006 862.372H923.322Z" fill="#E5C67B"/>
<path d="M979.757 893.921H899.355C899.242 893.921 899.15 893.829 899.15 893.715C899.15 893.602 899.242 893.509 899.355 893.509H979.757C979.87 893.509 979.963 893.602 979.963 893.715C979.963 893.829 979.87 893.921 979.757 893.921Z" fill="#A4A4E0"/>
<path d="M982.377 874.427H901.976C901.862 874.427 901.77 874.335 901.77 874.221C901.77 874.107 901.862 874.015 901.976 874.015H982.377C982.491 874.015 982.584 874.107 982.584 874.221C982.584 874.335 982.491 874.427 982.377 874.427Z" fill="#A4A4E0"/>
<path d="M965.726 862.578H911.552C911.438 862.578 911.346 862.486 911.346 862.372C911.346 862.258 911.438 862.166 911.552 862.166H965.726C965.839 862.166 965.932 862.258 965.932 862.372C965.932 862.486 965.839 862.578 965.726 862.578Z" fill="#A4A4E0"/>
<path d="M701.373 703.835H612.93V697.877H701.373V703.835Z" fill="#663473"/>
<path d="M701.368 697.88H626.676L654.964 628.854H729.656L701.368 697.88Z" fill="white"/>
<path d="M627.624 697.244H700.942L728.708 629.49H655.39L627.624 697.244ZM701.795 698.516H625.728L654.538 628.218H730.604L701.795 698.516Z" fill="#663473"/>
<path d="M694.921 692.078H636.221L658.451 637.831H717.151L694.921 692.078Z" fill="#EBEBFF"/>
<path d="M671.632 906.764H670.361V705.742H671.632V906.764Z" fill="#1B1B43"/>
<path d="M742.333 715.198H599.66V703.842H742.333V715.198Z" fill="#D1D1FF"/>
<path d="M484.526 906.764H483.255V790.181H484.526V906.764Z" fill="#1B1B43"/>
<path d="M518.782 795.588H449C450.481 788.498 456.727 783.42 463.965 783.42H503.817C511.054 783.42 517.3 788.498 518.782 795.588Z" fill="#D1D1FF"/>
<path d="M502.005 906.424H465.776C465.776 902.016 469.347 898.442 473.752 898.442H494.029C498.434 898.442 502.005 902.016 502.005 906.424Z" fill="#D1D1FF"/>
<path d="M537.726 617.205C539.511 619.772 542.07 623.408 542.353 626.586C542.764 631.206 535.378 627.968 535.291 628.367C535.291 628.366 537.726 617.205 537.726 617.205Z" fill="#E28383"/>
<path d="M526.447 656.894H503.092V622.641H526.447V656.894Z" fill="#FFB8B7"/>
<path d="M526.447 628.516V652.971C519.088 648.344 512.727 641.472 507.229 633.541L526.447 628.516Z" fill="#1B1B43"/>
<path d="M539.573 619.285C538.846 631.117 534.297 644.502 521.882 641.199C512.132 638.606 501.398 630.389 501.398 618.534C501.398 606.68 509.597 597.069 519.71 597.069C526.031 597.069 533.989 600.139 537.734 606.068C539.982 609.626 539.89 614.125 539.573 619.285Z" fill="#FFB8B7"/>
<path d="M518.904 615.851C522.21 607.076 529.778 606.213 529.778 606.213C529.778 606.213 547.301 623.559 546.215 605.637C545.352 591.395 531.445 592.742 531.445 592.742C524.65 583.889 513.753 587.353 509.779 592.485C505.805 597.617 507.215 594.666 497.856 598.002C488.498 601.338 493.497 615.579 491.831 616.606C479.396 616.606 481.703 628.923 481.703 628.923L511.142 638.532L518.233 619.16L518.904 615.851Z" fill="#1B1B43"/>
<path d="M521.974 616.856C523.794 620.011 523.302 623.706 520.875 625.108C518.447 626.511 515.004 625.09 513.184 621.935C511.364 618.78 511.855 615.085 514.283 613.682C516.71 612.279 520.154 613.701 521.974 616.856Z" fill="#FFB8B7"/>
<path d="M518.214 620.657C517.8 619.858 517.452 619.08 516.895 618.536C516.621 618.261 516.304 618.039 515.944 617.843C515.583 617.648 515.182 617.485 514.771 617.291L514.833 616.96C515.3 616.934 515.774 616.989 516.238 617.145C516.702 617.297 517.153 617.567 517.507 617.934C517.861 618.3 518.118 618.739 518.277 619.192C518.441 619.644 518.528 620.109 518.541 620.576L518.214 620.657Z" fill="#1B1B43"/>
<path d="M506.206 578.011C511.663 577.752 516.315 582.339 516.596 588.257C516.876 594.175 512.679 599.182 507.221 599.44C501.763 599.699 497.111 595.112 496.831 589.194C496.551 583.276 500.748 578.269 506.206 578.011Z" fill="#1B1B43"/>
<g opacity="0.199997">
<g opacity="0.199997">
<path opacity="0.199997" d="M533.868 625.991C533.868 628.451 531.875 630.445 529.418 630.445C526.961 630.445 524.968 628.451 524.968 625.991C524.968 623.532 526.961 621.538 529.418 621.538C531.875 621.538 533.868 623.532 533.868 625.991Z" fill="#FE5B52"/>
</g>
</g>
<path d="M546.899 741.14L472.106 731.597L486.205 657.202C487.196 651.998 490.655 647.583 495.473 645.394C499.491 643.562 504.08 643.448 508.199 645.064L533.69 656.4C538.597 658.577 541.979 663.195 542.59 668.526L544.026 692.828L545.666 720.375L546.899 741.14Z" fill="#D9575C"/>
<path d="M615.34 687.7L635.137 681.877C636.563 681.457 638.096 681.687 639.335 682.51C644.754 686.11 659.178 696.296 655.536 700.462C653.718 702.541 637.165 697.668 637.165 697.668L613.197 704.361L615.34 687.7Z" fill="#FFB8B7"/>
<path d="M545.666 720.375C539.437 712.436 535.737 701.951 534.504 688.973L544.026 692.828L545.666 720.375Z" fill="#1B1B43"/>
<path d="M531.431 655.467L534.412 656.753C540.547 659.399 546.045 663.33 550.536 668.28L575.081 695.335L615.341 687.701L620.638 709.33L570.052 725.153C566.058 725.864 561.977 724.486 559.231 721.496L522.744 681.763L531.431 655.467Z" fill="#D9575C"/>
<path d="M574.613 695.765C574.493 695.635 562.518 682.585 552.146 670.947C541.893 659.442 526.261 653.848 526.104 653.793L526.526 652.592C526.686 652.648 542.618 658.344 553.095 670.1C563.461 681.731 575.429 694.774 575.549 694.904L574.613 695.765Z" fill="#1B1B43"/>
<path d="M558.774 721.939L524.83 686.871L525.743 685.986L559.687 721.053L558.774 721.939Z" fill="#1B1B43"/>
<path d="M544.188 853.665L528.054 885.12L568.814 906.062L557.968 881.238L566.818 861.565L544.188 853.665Z" fill="#1C1C28"/>
<path d="M546.565 885.258L546.206 884.038L557.788 880.627L558.147 881.848L546.565 885.258Z" fill="#1B1B43"/>
<path d="M569.572 874.337L532.646 860.548L557.933 781.804C562.28 770.144 575.669 764.376 587.839 768.92C600.01 773.466 606.351 786.601 602.005 798.261L569.572 874.337Z" fill="#1C1C28"/>
<path d="M605.381 869.013L608.986 906.441H654.803L633.827 889.314L628.902 867.74L605.381 869.013Z" fill="#1C1C28"/>
<path d="M623.276 895.866L622.661 894.752L633.52 888.757L634.134 889.871L623.276 895.866Z" fill="#1B1B43"/>
<path d="M638.436 873.466L598.389 879.828L570.966 799.122L565.969 784.401L497.863 784.948C481.018 785.33 467.618 770.888 469.27 754.093L472.106 731.598L539.487 740.084L583.768 744.957C602.203 748.138 607.861 759.309 611.7 773.662L638.436 873.466Z" fill="#2F2E41"/>
<path d="M570.966 799.122L565.969 784.401L575.186 784.082C576.038 789.63 573.839 795.826 570.966 799.122Z" fill="#1B1B43"/>
<path d="M7.8975 318.048C7.8975 320.231 6.12959 322 3.94908 322C1.76804 322 0.00012207 320.231 0.00012207 318.048C0.00012207 315.865 1.76804 314.096 3.94908 314.096C6.12959 314.096 7.8975 315.865 7.8975 318.048Z" fill="#663473"/>
<path d="M33.1694 318.048C33.1694 320.23 31.4014 322 29.2204 322C27.0399 322 25.272 320.23 25.272 318.048C25.272 315.865 27.0399 314.096 29.2204 314.096C31.4014 314.096 33.1694 315.865 33.1694 318.048Z" fill="#663473"/>
<path d="M58.4408 318.048C58.4408 320.23 56.6729 322 54.4919 322C52.3114 322 50.5435 320.23 50.5435 318.048C50.5435 315.865 52.3114 314.096 54.4919 314.096C56.6729 314.096 58.4408 315.865 58.4408 318.048Z" fill="#663473"/>
<path d="M83.7128 318.048C83.7128 320.23 81.9449 322 79.7644 322C77.5833 322 75.8154 320.23 75.8154 318.048C75.8154 315.865 77.5833 314.096 79.7644 314.096C81.9449 314.096 83.7128 315.865 83.7128 318.048Z" fill="#663473"/>
<path d="M7.89738 294.177C7.89738 296.36 6.12947 298.129 3.94896 298.129C1.76792 298.129 0 296.36 0 294.177C0 291.994 1.76792 290.225 3.94896 290.225C6.12947 290.225 7.89738 291.994 7.89738 294.177Z" fill="#663473"/>
<path d="M33.1694 294.177C33.1694 296.36 31.4014 298.129 29.2204 298.129C27.0399 298.129 25.272 296.36 25.272 294.177C25.272 291.994 27.0399 290.225 29.2204 290.225C31.4014 290.225 33.1694 291.994 33.1694 294.177Z" fill="#663473"/>
<path d="M58.4408 294.177C58.4408 296.36 56.6729 298.129 54.4919 298.129C52.3114 298.129 50.5435 296.36 50.5435 294.177C50.5435 291.994 52.3114 290.225 54.4919 290.225C56.6729 290.225 58.4408 291.994 58.4408 294.177Z" fill="#663473"/>
<path d="M83.7128 294.177C83.7128 296.36 81.9449 298.129 79.7644 298.129C77.5833 298.129 75.8154 296.36 75.8154 294.177C75.8154 291.994 77.5833 290.225 79.7644 290.225C81.9449 290.225 83.7128 291.994 83.7128 294.177Z" fill="#663473"/>
<path d="M108.985 294.177C108.985 296.36 107.217 298.129 105.036 298.129C102.855 298.129 101.087 296.36 101.087 294.177C101.087 291.994 102.855 290.225 105.036 290.225C107.217 290.225 108.985 291.994 108.985 294.177Z" fill="#663473"/>
<path d="M7.89738 270.306C7.89738 272.489 6.12947 274.258 3.94896 274.258C1.76792 274.258 0 272.489 0 270.306C0 268.123 1.76792 266.354 3.94896 266.354C6.12947 266.354 7.89738 268.123 7.89738 270.306Z" fill="#663473"/>
<path d="M33.1694 270.306C33.1694 272.489 31.4014 274.258 29.2204 274.258C27.0399 274.258 25.272 272.489 25.272 270.306C25.272 268.123 27.0399 266.354 29.2204 266.354C31.4014 266.354 33.1694 268.123 33.1694 270.306Z" fill="#663473"/>
<path d="M58.4408 270.306C58.4408 272.489 56.6729 274.258 54.4919 274.258C52.3114 274.258 50.5435 272.489 50.5435 270.306C50.5435 268.123 52.3114 266.354 54.4919 266.354C56.6729 266.354 58.4408 268.123 58.4408 270.306Z" fill="#663473"/>
<path d="M83.7128 270.306C83.7128 272.489 81.9449 274.258 79.7644 274.258C77.5833 274.258 75.8154 272.489 75.8154 270.306C75.8154 268.123 77.5833 266.354 79.7644 266.354C81.9449 266.354 83.7128 268.123 83.7128 270.306Z" fill="#663473"/>
<path d="M108.985 270.306C108.985 272.489 107.217 274.258 105.036 274.258C102.855 274.258 101.087 272.489 101.087 270.306C101.087 268.123 102.855 266.354 105.036 266.354C107.217 266.354 108.985 268.123 108.985 270.306Z" fill="#663473"/>
<path d="M7.89738 246.435C7.89738 248.618 6.12947 250.387 3.94896 250.387C1.76792 250.387 0 248.618 0 246.435C0 244.253 1.76792 242.483 3.94896 242.483C6.12947 242.483 7.89738 244.253 7.89738 246.435Z" fill="#663473"/>
<path d="M33.1694 246.435C33.1694 248.618 31.4014 250.387 29.2204 250.387C27.0399 250.387 25.272 248.618 25.272 246.435C25.272 244.253 27.0399 242.483 29.2204 242.483C31.4014 242.483 33.1694 244.253 33.1694 246.435Z" fill="#663473"/>
<path d="M58.4408 246.435C58.4408 248.618 56.6729 250.387 54.4919 250.387C52.3114 250.387 50.5435 248.618 50.5435 246.435C50.5435 244.253 52.3114 242.483 54.4919 242.483C56.6729 242.483 58.4408 244.253 58.4408 246.435Z" fill="#663473"/>
<path d="M83.7128 246.435C83.7128 248.618 81.9449 250.387 79.7644 250.387C77.5833 250.387 75.8154 248.618 75.8154 246.435C75.8154 244.253 77.5833 242.483 79.7644 242.483C81.9449 242.483 83.7128 244.253 83.7128 246.435Z" fill="#663473"/>
<path d="M108.985 246.435C108.985 248.618 107.217 250.387 105.036 250.387C102.855 250.387 101.087 248.618 101.087 246.435C101.087 244.253 102.855 242.483 105.036 242.483C107.217 242.483 108.985 244.253 108.985 246.435Z" fill="#663473"/>
<path d="M134.257 246.435C134.257 248.618 132.489 250.387 130.308 250.387C128.127 250.387 126.359 248.618 126.359 246.435C126.359 244.253 128.127 242.483 130.308 242.483C132.489 242.483 134.257 244.253 134.257 246.435Z" fill="#663473"/>
<path d="M7.89738 222.564C7.89738 224.747 6.12947 226.516 3.94896 226.516C1.76792 226.516 0 224.747 0 222.564C0 220.381 1.76792 218.612 3.94896 218.612C6.12947 218.612 7.89738 220.381 7.89738 222.564Z" fill="#663473"/>
<path d="M33.1694 222.564C33.1694 224.747 31.4014 226.516 29.2204 226.516C27.0399 226.516 25.272 224.747 25.272 222.564C25.272 220.381 27.0399 218.612 29.2204 218.612C31.4014 218.612 33.1694 220.381 33.1694 222.564Z" fill="#663473"/>
<path d="M58.4408 222.564C58.4408 224.747 56.6729 226.516 54.4919 226.516C52.3114 226.516 50.5435 224.747 50.5435 222.564C50.5435 220.381 52.3114 218.612 54.4919 218.612C56.6729 218.612 58.4408 220.381 58.4408 222.564Z" fill="#663473"/>
<path d="M83.7128 222.564C83.7128 224.747 81.9449 226.516 79.7644 226.516C77.5833 226.516 75.8154 224.747 75.8154 222.564C75.8154 220.381 77.5833 218.612 79.7644 218.612C81.9449 218.612 83.7128 220.381 83.7128 222.564Z" fill="#663473"/>
<path d="M108.985 222.564C108.985 224.747 107.217 226.516 105.036 226.516C102.855 226.516 101.087 224.747 101.087 222.564C101.087 220.381 102.855 218.612 105.036 218.612C107.217 218.612 108.985 220.381 108.985 222.564Z" fill="#663473"/>
<path d="M134.257 222.564C134.257 224.747 132.489 226.516 130.308 226.516C128.127 226.516 126.359 224.747 126.359 222.564C126.359 220.381 128.127 218.612 130.308 218.612C132.489 218.612 134.257 220.381 134.257 222.564Z" fill="#663473"/>
<path d="M7.89738 198.693C7.89738 200.876 6.12947 202.645 3.94896 202.645C1.76792 202.645 0 200.876 0 198.693C0 196.511 1.76792 194.742 3.94896 194.742C6.12947 194.742 7.89738 196.511 7.89738 198.693Z" fill="#663473"/>
<path d="M33.1694 198.693C33.1694 200.876 31.4014 202.645 29.2204 202.645C27.0399 202.645 25.272 200.876 25.272 198.693C25.272 196.511 27.0399 194.742 29.2204 194.742C31.4014 194.742 33.1694 196.511 33.1694 198.693Z" fill="#663473"/>
<path d="M58.4408 198.693C58.4408 200.876 56.6729 202.645 54.4919 202.645C52.3114 202.645 50.5435 200.876 50.5435 198.693C50.5435 196.511 52.3114 194.742 54.4919 194.742C56.6729 194.742 58.4408 196.511 58.4408 198.693Z" fill="#663473"/>
<path d="M83.7128 198.693C83.7128 200.876 81.9449 202.645 79.7644 202.645C77.5833 202.645 75.8154 200.876 75.8154 198.693C75.8154 196.511 77.5833 194.742 79.7644 194.742C81.9449 194.742 83.7128 196.511 83.7128 198.693Z" fill="#663473"/>
<path d="M108.985 198.693C108.985 200.876 107.217 202.645 105.036 202.645C102.855 202.645 101.087 200.876 101.087 198.693C101.087 196.511 102.855 194.742 105.036 194.742C107.217 194.742 108.985 196.511 108.985 198.693Z" fill="#663473"/>
<path d="M7.89738 174.823C7.89738 177.005 6.12947 178.774 3.94896 178.774C1.76792 178.774 0 177.005 0 174.823C0 172.64 1.76792 170.87 3.94896 170.87C6.12947 170.87 7.89738 172.64 7.89738 174.823Z" fill="#663473"/>
<path d="M33.1694 174.823C33.1694 177.005 31.4014 178.774 29.2204 178.774C27.0399 178.774 25.272 177.005 25.272 174.823C25.272 172.64 27.0399 170.87 29.2204 170.87C31.4014 170.87 33.1694 172.64 33.1694 174.823Z" fill="#663473"/>
<path d="M58.4408 174.823C58.4408 177.005 56.6729 178.774 54.4919 178.774C52.3114 178.774 50.5435 177.005 50.5435 174.823C50.5435 172.64 52.3114 170.87 54.4919 170.87C56.6729 170.87 58.4408 172.64 58.4408 174.823Z" fill="#663473"/>
<path d="M83.7128 174.823C83.7128 177.005 81.9449 178.774 79.7644 178.774C77.5833 178.774 75.8154 177.005 75.8154 174.823C75.8154 172.64 77.5833 170.87 79.7644 170.87C81.9449 170.87 83.7128 172.64 83.7128 174.823Z" fill="#663473"/>
<path d="M108.985 174.823C108.985 177.005 107.217 178.774 105.036 178.774C102.855 178.774 101.087 177.005 101.087 174.823C101.087 172.64 102.855 170.87 105.036 170.87C107.217 170.87 108.985 172.64 108.985 174.823Z" fill="#663473"/>
<path d="M7.89738 150.951C7.89738 153.134 6.12947 154.904 3.94896 154.904C1.76792 154.904 0 153.134 0 150.951C0 148.769 1.76792 147 3.94896 147C6.12947 147 7.89738 148.769 7.89738 150.951Z" fill="#663473"/>
<path d="M33.1694 150.951C33.1694 153.134 31.4014 154.904 29.2204 154.904C27.0399 154.904 25.272 153.134 25.272 150.951C25.272 148.769 27.0399 147 29.2204 147C31.4014 147 33.1694 148.769 33.1694 150.951Z" fill="#663473"/>
<path d="M58.4408 150.951C58.4408 153.134 56.6729 154.904 54.4919 154.904C52.3114 154.904 50.5435 153.134 50.5435 150.951C50.5435 148.769 52.3114 147 54.4919 147C56.6729 147 58.4408 148.769 58.4408 150.951Z" fill="#663473"/>
<path d="M83.7128 150.951C83.7128 153.134 81.9449 154.904 79.7644 154.904C77.5833 154.904 75.8154 153.134 75.8154 150.951C75.8154 148.769 77.5833 147 79.7644 147C81.9449 147 83.7128 148.769 83.7128 150.951Z" fill="#663473"/>
<path d="M1426.39 578.021C1426.37 575.838 1428.12 574.053 1430.3 574.034C1432.48 574.015 1434.27 575.769 1434.29 577.952C1434.3 580.135 1432.55 581.919 1430.37 581.938C1428.19 581.957 1426.41 580.204 1426.39 578.021Z" fill="#663473"/>
<path d="M1401.12 578.242C1401.1 576.059 1402.85 574.274 1405.03 574.255C1407.21 574.236 1409 575.99 1409.01 578.173C1409.03 580.355 1407.28 582.139 1405.1 582.159C1402.92 582.178 1401.14 580.424 1401.12 578.242Z" fill="#663473"/>
<path d="M1375.85 578.462C1375.83 576.279 1377.58 574.495 1379.76 574.476C1381.94 574.457 1383.73 576.21 1383.74 578.393C1383.76 580.576 1382.01 582.36 1379.83 582.379C1377.65 582.398 1375.87 580.645 1375.85 578.462Z" fill="#663473"/>
<path d="M1350.58 578.682C1350.56 576.5 1352.31 574.715 1354.49 574.696C1356.67 574.677 1358.45 576.431 1358.47 578.614C1358.49 580.796 1356.74 582.58 1354.56 582.599C1352.38 582.618 1350.6 580.865 1350.58 578.682Z" fill="#663473"/>
<path d="M1426.6 601.891C1426.58 599.708 1428.33 597.924 1430.51 597.905C1432.69 597.886 1434.48 599.639 1434.49 601.822C1434.51 604.005 1432.76 605.789 1430.58 605.808C1428.4 605.828 1426.62 604.074 1426.6 601.891Z" fill="#663473"/>
<path d="M1401.33 602.111C1401.31 599.929 1403.06 598.144 1405.24 598.125C1407.42 598.106 1409.2 599.86 1409.22 602.043C1409.24 604.225 1407.49 606.01 1405.31 606.029C1403.13 606.048 1401.35 604.294 1401.33 602.111Z" fill="#663473"/>
<path d="M1376.06 602.332C1376.04 600.149 1377.79 598.365 1379.97 598.345C1382.15 598.326 1383.93 600.08 1383.95 602.263C1383.97 604.446 1382.22 606.23 1380.04 606.249C1377.86 606.268 1376.07 604.515 1376.06 602.332Z" fill="#663473"/>
<path d="M1350.78 602.553C1350.77 600.37 1352.52 598.585 1354.7 598.566C1356.88 598.547 1358.66 600.301 1358.68 602.484C1358.7 604.666 1356.95 606.451 1354.77 606.47C1352.59 606.489 1350.8 604.735 1350.78 602.553Z" fill="#663473"/>
<path d="M1325.51 602.773C1325.49 600.59 1327.25 598.806 1329.43 598.787C1331.61 598.768 1333.39 600.521 1333.41 602.704C1333.43 604.887 1331.68 606.672 1329.5 606.691C1327.32 606.71 1325.53 604.956 1325.51 602.773Z" fill="#663473"/>
<path d="M1426.81 625.761C1426.79 623.578 1428.54 621.794 1430.72 621.775C1432.9 621.756 1434.68 623.509 1434.7 625.692C1434.72 627.875 1432.97 629.659 1430.79 629.678C1428.61 629.697 1426.82 627.943 1426.81 625.761Z" fill="#663473"/>
<path d="M1401.53 625.981C1401.52 623.799 1403.27 622.014 1405.45 621.995C1407.63 621.976 1409.41 623.73 1409.43 625.912C1409.45 628.095 1407.7 629.88 1405.52 629.899C1403.34 629.918 1401.55 628.164 1401.53 625.981Z" fill="#663473"/>
<path d="M1376.26 626.202C1376.24 624.019 1378 622.235 1380.18 622.216C1382.36 622.197 1384.14 623.95 1384.16 626.133C1384.18 628.316 1382.43 630.1 1380.25 630.119C1378.07 630.138 1376.28 628.385 1376.26 626.202Z" fill="#663473"/>
<path d="M1350.99 626.422C1350.97 624.24 1352.73 622.456 1354.91 622.437C1357.09 622.418 1358.87 624.171 1358.89 626.354C1358.91 628.536 1357.16 630.321 1354.98 630.34C1352.8 630.359 1351.01 628.605 1350.99 626.422Z" fill="#663473"/>
<path d="M1325.72 626.643C1325.7 624.46 1327.46 622.676 1329.64 622.657C1331.82 622.638 1333.6 624.391 1333.62 626.574C1333.64 628.757 1331.89 630.541 1329.7 630.56C1327.52 630.579 1325.74 628.826 1325.72 626.643Z" fill="#663473"/>
<path d="M1427.01 649.631C1426.99 647.449 1428.75 645.664 1430.93 645.645C1433.11 645.626 1434.89 647.38 1434.91 649.562C1434.93 651.744 1433.18 653.529 1431 653.548C1428.82 653.567 1427.03 651.813 1427.01 649.631Z" fill="#663473"/>
<path d="M1401.74 649.851C1401.72 647.669 1403.48 645.884 1405.66 645.865C1407.84 645.846 1409.62 647.6 1409.64 649.782C1409.66 651.965 1407.91 653.75 1405.73 653.769C1403.55 653.788 1401.76 652.034 1401.74 649.851Z" fill="#663473"/>
<path d="M1376.47 650.072C1376.45 647.889 1378.21 646.105 1380.39 646.086C1382.57 646.067 1384.35 647.821 1384.37 650.003C1384.39 652.185 1382.64 653.97 1380.46 653.989C1378.27 654.008 1376.49 652.254 1376.47 650.072Z" fill="#663473"/>
<path d="M1351.2 650.292C1351.18 648.11 1352.93 646.325 1355.12 646.306C1357.3 646.287 1359.08 648.041 1359.1 650.223C1359.12 652.406 1357.36 654.191 1355.18 654.21C1353 654.229 1351.22 652.475 1351.2 650.292Z" fill="#663473"/>
<path d="M1325.93 650.513C1325.91 648.331 1327.66 646.546 1329.84 646.527C1332.02 646.508 1333.81 648.262 1333.83 650.444C1333.85 652.627 1332.09 654.411 1329.91 654.43C1327.73 654.449 1325.95 652.695 1325.93 650.513Z" fill="#663473"/>
<path d="M1300.66 650.733C1300.64 648.551 1302.39 646.766 1304.57 646.747C1306.75 646.728 1308.54 648.482 1308.56 650.664C1308.58 652.847 1306.82 654.632 1304.64 654.651C1302.46 654.67 1300.68 652.916 1300.66 650.733Z" fill="#663473"/>
<path d="M1427.22 673.501C1427.2 671.318 1428.96 669.534 1431.14 669.515C1433.32 669.496 1435.1 671.249 1435.12 673.432C1435.14 675.615 1433.39 677.399 1431.2 677.418C1429.02 677.437 1427.24 675.684 1427.22 673.501Z" fill="#663473"/>
<path d="M1401.95 673.722C1401.93 671.539 1403.68 669.754 1405.87 669.735C1408.05 669.716 1409.83 671.47 1409.85 673.653C1409.87 675.835 1408.11 677.619 1405.93 677.638C1403.75 677.658 1401.97 675.904 1401.95 673.722Z" fill="#663473"/>
<path d="M1376.68 673.942C1376.66 671.759 1378.41 669.975 1380.59 669.956C1382.78 669.937 1384.56 671.69 1384.58 673.873C1384.6 676.056 1382.84 677.84 1380.66 677.859C1378.48 677.878 1376.7 676.125 1376.68 673.942Z" fill="#663473"/>
<path d="M1351.41 674.163C1351.39 671.98 1353.14 670.195 1355.32 670.176C1357.5 670.157 1359.29 671.911 1359.31 674.094C1359.33 676.276 1357.57 678.061 1355.39 678.08C1353.21 678.099 1351.43 676.345 1351.41 674.163Z" fill="#663473"/>
<path d="M1326.14 674.383C1326.12 672.2 1327.87 670.416 1330.05 670.397C1332.23 670.378 1334.02 672.132 1334.04 674.314C1334.05 676.497 1332.3 678.281 1330.12 678.3C1327.94 678.319 1326.16 676.566 1326.14 674.383Z" fill="#663473"/>
<path d="M1300.87 674.604C1300.85 672.421 1302.6 670.636 1304.78 670.617C1306.96 670.598 1308.75 672.352 1308.76 674.535C1308.78 676.717 1307.03 678.502 1304.85 678.521C1302.67 678.54 1300.89 676.786 1300.87 674.604Z" fill="#663473"/>
<path d="M1427.43 697.371C1427.41 695.188 1429.16 693.404 1431.34 693.385C1433.53 693.366 1435.31 695.119 1435.33 697.302C1435.35 699.484 1433.59 701.269 1431.41 701.288C1429.23 701.307 1427.45 699.553 1427.43 697.371Z" fill="#663473"/>
<path d="M1402.16 697.591C1402.14 695.409 1403.89 693.624 1406.07 693.605C1408.25 693.586 1410.04 695.34 1410.06 697.523C1410.08 699.705 1408.32 701.489 1406.14 701.508C1403.96 701.527 1402.18 699.774 1402.16 697.591Z" fill="#663473"/>
<path d="M1376.89 697.812C1376.87 695.629 1378.62 693.845 1380.8 693.826C1382.98 693.807 1384.77 695.561 1384.79 697.743C1384.8 699.925 1383.05 701.71 1380.87 701.729C1378.69 701.748 1376.91 699.994 1376.89 697.812Z" fill="#663473"/>
<path d="M1351.62 698.033C1351.6 695.85 1353.35 694.065 1355.53 694.046C1357.71 694.027 1359.5 695.781 1359.51 697.964C1359.53 700.146 1357.78 701.931 1355.6 701.95C1353.42 701.969 1351.64 700.215 1351.62 698.033Z" fill="#663473"/>
<path d="M1326.35 698.253C1326.33 696.07 1328.08 694.286 1330.26 694.267C1332.44 694.248 1334.22 696.001 1334.24 698.184C1334.26 700.366 1332.51 702.151 1330.33 702.17C1328.15 702.189 1326.37 700.435 1326.35 698.253Z" fill="#663473"/>
<path d="M1427.64 721.241C1427.62 719.059 1429.37 717.274 1431.55 717.255C1433.73 717.236 1435.52 718.99 1435.54 721.172C1435.55 723.355 1433.8 725.139 1431.62 725.158C1429.44 725.177 1427.66 723.424 1427.64 721.241Z" fill="#663473"/>
<path d="M1402.37 721.461C1402.35 719.279 1404.1 717.494 1406.28 717.475C1408.46 717.456 1410.25 719.21 1410.26 721.392C1410.28 723.575 1408.53 725.36 1406.35 725.379C1404.17 725.398 1402.39 723.644 1402.37 721.461Z" fill="#663473"/>
<path d="M1377.1 721.682C1377.08 719.5 1378.83 717.715 1381.01 717.696C1383.19 717.677 1384.98 719.431 1384.99 721.613C1385.01 723.796 1383.26 725.58 1381.08 725.599C1378.9 725.618 1377.12 723.864 1377.1 721.682Z" fill="#663473"/>
<path d="M1351.83 721.902C1351.81 719.72 1353.56 717.936 1355.74 717.917C1357.92 717.898 1359.7 719.651 1359.72 721.834C1359.74 724.016 1357.99 725.801 1355.81 725.82C1353.63 725.839 1351.85 724.085 1351.83 721.902Z" fill="#663473"/>
<path d="M1326.56 722.123C1326.54 719.941 1328.29 718.156 1330.47 718.137C1332.65 718.118 1334.43 719.872 1334.45 722.054C1334.47 724.237 1332.72 726.021 1330.54 726.04C1328.36 726.059 1326.57 724.306 1326.56 722.123Z" fill="#663473"/>
<path d="M1427.85 745.111C1427.83 742.928 1429.58 741.144 1431.76 741.125C1433.94 741.106 1435.73 742.859 1435.74 745.042C1435.76 747.224 1434.01 749.009 1431.83 749.028C1429.65 749.047 1427.87 747.293 1427.85 745.111Z" fill="#663473"/>
<path d="M1402.58 745.331C1402.56 743.149 1404.31 741.364 1406.49 741.345C1408.67 741.326 1410.45 743.08 1410.47 745.263C1410.49 747.445 1408.74 749.229 1406.56 749.248C1404.38 749.267 1402.6 747.514 1402.58 745.331Z" fill="#663473"/>
<path d="M1377.31 745.552C1377.29 743.369 1379.04 741.585 1381.22 741.566C1383.4 741.547 1385.18 743.301 1385.2 745.483C1385.22 747.665 1383.47 749.45 1381.29 749.469C1379.11 749.488 1377.32 747.734 1377.31 745.552Z" fill="#663473"/>
<path d="M1352.03 745.773C1352.02 743.59 1353.77 741.805 1355.95 741.786C1358.13 741.767 1359.91 743.521 1359.93 745.704C1359.95 747.886 1358.2 749.671 1356.02 749.69C1353.84 749.709 1352.05 747.955 1352.03 745.773Z" fill="#663473"/>
</g>
<defs>
<clipPath id="clip0">
<rect width="1440" height="900" fill="white"/>
</clipPath>
</defs>
</svg>
